<?xml version="1.0" encoding="UTF-8" standalone="no"?>
<!-- Created with Inkscape (http://www.inkscape.org/) -->

<svg
   xmlns:svg="http://www.w3.org/2000/svg"
   xmlns="http://www.w3.org/2000/svg"
   xmlns:sodipodi="http://sodipodi.sourceforge.net/DTD/sodipodi-0.dtd"
   xmlns:inkscape="http://www.inkscape.org/namespaces/inkscape"
   id="svg2"
   version="1.1"
   inkscape:version="0.91 r13725"
   xml:space="preserve"
   width="353.75"
   height="34.888"
   viewBox="0 0 353.75 34.888"
   sodipodi:docname="logoUvA_nl.svg"><sodipodi:namedview
     pagecolor="#ffffff"
     bordercolor="#666666"
     borderopacity="1"
     objecttolerance="10"
     gridtolerance="10"
     guidetolerance="10"
     inkscape:pageopacity="0"
     inkscape:pageshadow="2"
     inkscape:window-width="1920"
     inkscape:window-height="1016"
     id="namedview42"
     showgrid="false"
     inkscape:zoom="9.7865577"
     inkscape:cx="68.617008"
     inkscape:cy="30.497774"
     inkscape:window-x="0"
     inkscape:window-y="27"
     inkscape:window-maximized="1"
     inkscape:current-layer="svg2" /><defs
     id="defs6"><clipPath
       clipPathUnits="userSpaceOnUse"
       id="clipPath18"><path
         d="m 0,28.262 282.066,0 L 282.066,0 0,0 0,28.262 Z"
         id="path20"
         inkscape:connector-curvature="0" /></clipPath><clipPath
       clipPathUnits="userSpaceOnUse"
       id="clipPath28"><path
         d="M 0,0 283,0 283,29 0,29 0,0 Z"
         id="path30"
         inkscape:connector-curvature="0" /></clipPath></defs><path
     inkscape:connector-curvature="0"
     id="path34"
     style="fill:#000000;fill-opacity:1;fill-rule:nonzero;stroke:none"
     d="m 0,0 34.888,0 0,34.888 L 0,34.888 0,0 Z" /><path
     inkscape:connector-curvature="0"
     id="path36"
     style="fill:#ffffff;fill-opacity:1;fill-rule:nonzero;stroke:none"
     d="m 9.2925,10.518 c 0,0 0.84875,0.03875 1.43,0.03875 0.7125,0.005 1.32875,-0.15625 1.3425,-0.06375 0.03,0.17625 0.04875,7.8075 0.04875,7.8075 0,0 0.08375,1.63125 0.48375,2.46125 0.70375,1.455 3.82875,1.5775 3.82875,1.5775 0,0 0.4875,0.05875 1.57625,-0.025 1.085,-0.0875 3.20375,-0.4 3.8875,-1.68375 0,0 0.4875,-0.5475 0.66375,-3.62875 0.18125,-3.23625 -0.24875,-6.435 -0.24875,-6.435 l 3.0325,-0.14125 c 0,0 -0.20625,2.285 -0.215,6.57625 0,4.2875 0.395,6.8075 0.395,6.8075 l -3.0025,0.88375 0.005,-3.17875 -1.43125,1.3425 c 0,0 -0.835,0.85875 -2.72,1.3425 -1.88375,0.48375 -3.32,0.39625 -4.175,0.225 -0.85875,-0.17625 -1.63,-0.405 -2.11375,-0.635 -0.48875,-0.22875 -1.3425,-0.65375 -2.11375,-1.86 -0.46,-0.70875 -0.46,-2.485 -0.46,-2.485 L 9.54625,16.123 9.2925,10.518" /><path
     style="fill:#ffffff;fill-opacity:1;fill-rule:nonzero;stroke:none"
     d="M 14.814453 1.3046875 L 13.359375 2.7597656 L 15.910156 5.3164062 L 13.183594 8.0371094 L 14.638672 9.4980469 L 17.367188 6.7753906 L 20.064453 9.4785156 L 21.519531 8.0234375 L 18.824219 5.3222656 L 21.357422 2.7929688 L 19.902344 1.3320312 L 17.367188 3.8632812 L 14.814453 1.3046875 z "
     id="path38" /><path
     style="fill:#ffffff;fill-opacity:1;fill-rule:nonzero;stroke:none"
     d="M 14.824219 11.464844 L 13.369141 12.919922 L 15.919922 15.474609 L 13.193359 18.193359 L 14.648438 19.652344 L 17.375 16.933594 L 20.074219 19.638672 L 21.529297 18.183594 L 18.830078 15.480469 L 21.367188 12.949219 L 19.912109 11.494141 L 17.376953 14.021484 L 14.824219 11.464844 z "
     id="path42" /><path
     style="fill:#ffffff;fill-opacity:1;fill-rule:nonzero;stroke:none"
     d="M 14.810547 25.019531 L 13.355469 26.470703 L 15.908203 29.029297 L 13.179688 31.753906 L 14.632812 33.207031 L 17.359375 30.484375 L 20.058594 33.189453 L 21.513672 31.738281 L 18.814453 29.033203 L 21.347656 26.503906 L 19.898438 25.048828 L 17.363281 27.578125 L 14.810547 25.019531 z "
     id="path46" /><path
     inkscape:connector-curvature="0"
     id="path50"
     style="fill:#000000;fill-opacity:1;fill-rule:nonzero;stroke:none"
     d="M 46.7575,3.10375 C 46.7575,1.2 45.6,1.2 44.2725,1.2 L 44.15,1.1025 l 0,-0.41 c 0,-0.26875 0.17125,-0.29375 0.435,-0.29375 0.625,0 2.1725,0.1225 3.305,0.1225 1.20625,0 2.4375,-0.1225 3.64375,-0.1225 l 0.0725,0.07375 0,0.63 -0.1175,0.0975 -0.2875,0 c -1.5725,0 -2.27,0.16625 -2.27,1.9775 l 0,6.9975 c 0,3.47625 0.67375,6.2 4.82375,6.2 4.32125,0 5.7225,-2.075 5.7225,-6.15125 l 0,-6.275 C 59.4775,1.2 59.4775,1.39 57.35375,1.2 l -0.0975,-0.195 0,-0.46 0.0725,-0.14625 c 0.435,0 0.91375,0.1225 2.725,0.1225 1.015,0 2.295,-0.1225 3.06625,-0.1225 l 0.0975,0.14625 0,0.50875 L 63.07125,1.2 c -1.7625,0 -2.3875,0.0925 -2.3875,1.29875 l 0,8.6175 c 0,4.415 -2.58375,6.66125 -6.9725,6.66125 -3.50125,0 -6.95375,-1.23125 -6.95375,-5.25875 l 0,-9.415" /><path
     inkscape:connector-curvature="0"
     id="path52"
     style="fill:#000000;fill-opacity:1;fill-rule:nonzero;stroke:none"
     d="m 64.595,6.86875 c 0,-0.36625 -0.02,-0.45375 -0.0925,-0.6 C 64.34125,5.96 63.545,5.31125 63.2375,5.29125 L 62.28,5.2375 c -0.0725,0 -0.0875,-0.18 -0.0875,-0.3225 0,-0.0925 0,-0.23875 0.0875,-0.23875 0.56125,0 0.99125,-0.03375 1.445,-0.03375 0.835,0 2.15375,0.0725 2.48125,0.1075 l 5.47875,6.62125 c 0.83,1.01 1.645,1.9525 2.94875,3.25125 l 0.06875,0 0,-7.95375 c 0,-1.19125 -0.435,-1.3775 -1.01125,-1.39125 L 72.915,5.2375 c -0.07375,0 -0.1125,-0.18 -0.1125,-0.3025 0,-0.1125 0.05375,-0.2925 0.16125,-0.2925 0.4,0 1.3425,0.0925 2.22625,0.0925 0.81625,0 1.685,-0.0925 2.1875,-0.0925 0.09375,0 0.1125,0.0725 0.1125,0.14625 l 0,0.34125 c 0,0.08875 -0.03875,0.1075 -0.16625,0.1075 l -0.46875,0 c -1.25,0 -1.25,0.635 -1.25,2.17375 l 0,10.46875 -0.43375,0 L 65.41,6.7225 l 0,8.3 c 0,1.55375 0.215,1.73375 1.7725,1.7925 0.06875,0 0.1275,0.16125 0.1275,0.3025 0,0.14625 -0.02,0.29375 -0.07375,0.29375 -0.34625,0 -1.50375,-0.09375 -2.26125,-0.09375 -0.8875,0 -1.28375,0.09375 -2.11875,0.09375 -0.1075,0 -0.12625,-0.1275 -0.12625,-0.36125 0,-0.16625 0.01875,-0.235 0.23875,-0.235 0.75625,0 1.62625,-0.18 1.62625,-1.10375 l 0,-8.8425" /><path
     inkscape:connector-curvature="0"
     id="path54"
     style="fill:#000000;fill-opacity:1;fill-rule:nonzero;stroke:none"
     d="m 82.23125,14.06625 c 0,2.63625 0.05875,2.65625 1.82625,2.74875 l 0.0925,0.1225 0,0.34625 c 0,0.1075 -0.2725,0.1275 -0.43375,0.1275 -0.25375,0 -1.465,-0.09375 -2.2075,-0.09375 -0.86875,0 -1.7525,0.09375 -2.695,0.09375 -0.07375,-0.04 -0.08875,-0.1475 -0.08875,-0.3275 0.015,-0.235 0.05375,-0.26875 0.57625,-0.26875 1.25,0 1.30375,-0.27375 1.30375,-1.645 l 0,-8.6475 c 0,-1.03125 -0.3075,-1.285 -1.82625,-1.285 L 78.725,5.15 78.69125,4.8625 c 0.015,-0.20125 0.17625,-0.22 0.28875,-0.22 0.4875,0 1.06375,0.0925 2.295,0.0925 0.9025,0 1.98625,-0.0925 2.71,-0.0925 l 0.0925,0.12625 0,0.3275 -0.07375,0.1075 L 83.515,5.2375 C 82.7925,5.29125 82.23125,5.365 82.23125,6.2 l 0,7.86625" /><path
     inkscape:connector-curvature="0"
     id="path56"
     style="fill:#000000;fill-opacity:1;fill-rule:nonzero;stroke:none"
     d="m 86.5775,5.8525 c -0.2,-0.4875 -0.92375,-0.615 -1.43125,-0.615 l -0.1075,-0.0875 0,-0.47375 0.2,-0.03375 c 0.7575,0 1.86125,0.0925 2.25625,0.0925 0.835,0 1.645,-0.0925 2.48,-0.0925 L 90.02875,4.69625 89.975,5.20375 89.12625,5.2775 c -0.29375,0.01375 -0.615,0.12625 -0.615,0.395 0,0.14625 0.0875,0.38125 0.16125,0.5425 l 2.08,5.42875 1.17625,2.69125 c 0.1275,0.2725 0.14125,0.32625 0.195,0.32625 0.03875,0 0.0925,-0.0725 0.16625,-0.2875 l 2.5825,-6.855 c 0.29375,-0.7775 0.50875,-1.44625 0.48875,-1.66625 -0.015,-0.3075 -0.1075,-0.4675 -0.63,-0.52125 l -0.9425,-0.09375 -0.1075,-0.05375 0,-0.56125 c 0.70875,0 1.41125,0.1125 2.115,0.1125 0.56125,0 1.7525,-0.1125 1.885,-0.1125 l 0.14125,0.07375 0,0.415 L 97.66125,5.2375 97.1,5.2775 c -0.36125,0.01375 -0.50875,0.2 -0.7625,0.83 -1.71375,4.14 -2.13375,5.44375 -3.505,8.935 l -0.92375,2.34875 C 91.82125,17.645 91.7825,17.665 91.655,17.665 c -0.16125,0 -0.2,-0.05375 -0.23375,-0.1325 L 86.5775,5.8525" /><path
     inkscape:connector-curvature="0"
     id="path58"
     style="fill:#000000;fill-opacity:1;fill-rule:nonzero;stroke:none"
     d="m 100.7225,6.4875 c 0,-1.17625 -0.88875,-1.30375 -1.93375,-1.30375 -0.0725,0 -0.0725,-0.0875 -0.0725,-0.16125 l 0,-0.2 c 0,-0.16125 0.3075,-0.18 0.9375,-0.18 0.7225,0 1.5375,0.0925 2.29875,0.0925 0.72375,0 1.44625,-0.0925 2.16875,-0.0925 l 3.81375,0 c 0.14625,0 0.165,0.16125 0.165,0.36125 l 0,2.20625 c 0,0.07375 -0.0387,0.1475 -0.12625,0.1475 -0.14625,0 -0.435,0.01375 -0.45375,-0.20125 L 107.46625,6.595 c -0.1075,-1.1575 -0.90375,-1.3575 -1.915,-1.3575 l -1.865,0 c -1.01,0 -1.3375,0.22 -1.3375,1.5925 l 0,3.27125 c 0,0.05875 0.1075,0.14625 0.14625,0.14625 l 2.13375,-0.0725 c 1.08375,-0.035 1.39125,-0.37625 1.66,-1.33875 0.0388,-0.1075 0.0925,-0.14125 0.29375,-0.14125 0.12125,0 0.215,0.015 0.215,0.1075 0,0.38125 -0.1075,1.21125 -0.1075,1.80625 0,0.97625 0.1075,1.50375 0.1075,1.81125 0,0.1075 -0.18125,0.215 -0.28875,0.215 -0.14625,0 -0.27375,-0.05375 -0.3075,-0.23375 -0.0875,-0.48875 -0.0875,-0.83 -0.18125,-1.08375 -0.0925,-0.27375 -0.3075,-0.40125 -0.84875,-0.42 l -2.56875,-0.05375 c -0.25375,0 -0.25375,0.0925 -0.25375,0.21875 l 0,4.3025 c 0,1.30375 0.9575,1.3375 2.2075,1.3375 l 0.97625,0 c 0.95625,0 1.62625,-0.01875 2.08,-0.2875 0.395,-0.235 0.95625,-1.33875 1.1575,-1.7925 0.23375,0 0.54125,0.05375 0.54125,0.18125 0,0.05875 -0.0538,0.2 -0.0875,0.2925 l -0.5075,1.82625 c -0.1475,0.48875 -0.24,0.48875 -0.47375,0.48875 -1.95375,0 -3.8675,-0.09375 -6.49,-0.09375 -0.595,0 -2.11375,0.09375 -3.03625,0.09375 -0.05375,0 -0.1125,-0.18125 -0.1125,-0.29375 0,-0.14125 0.03875,-0.3025 0.1125,-0.3025 1.57125,-0.07375 2.00625,-0.23875 2.00625,-1.9 l 0,-8.4275" /><path
     inkscape:connector-curvature="0"
     id="path60"
     style="fill:#000000;fill-opacity:1;fill-rule:nonzero;stroke:none"
     d="m 114.2725,10.4475 c 0.23375,0.02 0.45375,0.035 0.68875,0.035 1.445,0 3.25125,-0.50375 3.25125,-2.6375 0,-1.59125 -1.08375,-2.62625 -2.675,-2.62625 -1.23125,0 -1.265,0.2925 -1.265,0.835 l 0,4.39375 z M 112.64625,6.595 c 0,-0.9025 -0.0387,-1.3575 -1.17625,-1.3575 l -0.7425,0 c -0.1075,0 -0.1275,-0.2 -0.1275,-0.34125 0,-0.0925 0.0538,-0.25375 0.1275,-0.25375 1.05,0 2.11375,0.05375 3.16375,0.05375 0.835,0 1.64625,-0.05375 2.48125,-0.05375 1.84,0 3.6525,1.23 3.6525,3.13 0,1.645 -1.505,2.74875 -2.91125,2.96375 l 0,0.03875 c 0.70375,0.16125 1.44625,1.48 1.62625,1.7675 l 1.9875,3.0425 c 0.635,0.95625 1.05,1.1375 2.13375,1.19125 l 0.1075,0.1075 0,0.34625 c 0,0.16125 -0.1275,0.18125 -0.2,0.18125 -0.37625,0 -0.9375,-0.05375 -1.21125,-0.05375 -0.43,0 -0.86875,0.05375 -1.29875,0.05375 -0.415,0 -1.23,-1.21625 -2.3,-3.11125 -1.17125,-2.08 -1.86,-3.2225 -3.05125,-3.2225 -0.14625,0 -0.36125,0 -0.635,0.03875 l 0,4.42875 c 0,0.65 0,1.27 0.90375,1.27 0.6875,0 0.99625,0 0.99625,0.14125 0,0.3425 -0.0537,0.455 -0.3275,0.455 -0.9375,0 -1.71875,-0.09375 -2.495,-0.09375 -0.3075,0 -2.315,0.09375 -2.56875,0.09375 -0.1075,0 -0.14125,-0.235 -0.14125,-0.38125 0,-0.16125 0.0675,-0.2 0.42875,-0.215 1.25,-0.05875 1.5775,-0.23875 1.5775,-1.48375 l 0,-8.73625" /><path
     inkscape:connector-curvature="0"
     id="path62"
     style="fill:#000000;fill-opacity:1;fill-rule:nonzero;stroke:none"
     d="m 125.83,10.82875 c -1.29875,-0.78125 -1.82125,-1.50375 -1.82125,-2.91 0,-2.26125 1.84625,-3.53 4.2825,-3.53 0.68875,0 1.665,0.23375 2.28,0.5075 l 0.1275,2.26 0,0.08875 c 0,0.0925 -0.18125,0.12625 -0.435,0.12625 -0.235,0 -0.27375,-0.1075 -0.28875,-0.2875 -0.12625,-1.21125 -0.995,-1.9875 -2.28,-1.9875 -1.23,0 -2.1875,0.86375 -2.1875,2.02625 0,1.29875 0.79625,1.80625 2.6025,2.76375 1.7925,0.9425 3.345,1.7725 3.345,4.03375 0,2.46 -2.22125,3.745 -4.4825,3.745 -0.7425,0 -1.9725,-0.24 -2.66125,-0.5275 -0.14125,-0.07375 -0.195,-0.3075 -0.24875,-0.70375 l -0.22,-1.70375 c 0,-0.1075 0.36125,-0.1075 0.46875,-0.1075 0.0588,0 0.1125,0.03875 0.14625,0.16625 0.415,1.3725 1.3575,2.1675 2.80375,2.1675 1.26375,0 2.475,-1.10375 2.475,-2.33375 0,-1.17125 -0.66375,-1.88 -1.60625,-2.44125 l -2.3,-1.3525" /><path
     inkscape:connector-curvature="0"
     id="path64"
     style="fill:#000000;fill-opacity:1;fill-rule:nonzero;stroke:none"
     d="m 136.50375,14.06625 c 0,2.63625 0.0588,2.65625 1.83125,2.74875 l 0.0875,0.1225 0,0.34625 c 0,0.1075 -0.2725,0.1275 -0.43375,0.1275 -0.25375,0 -1.465,-0.09375 -2.2075,-0.09375 -0.86375,0 -1.7525,0.09375 -2.69,0.09375 -0.0737,-0.04 -0.0937,-0.1475 -0.0937,-0.3275 0.02,-0.235 0.0538,-0.26875 0.58125,-0.26875 1.245,0 1.29875,-0.27375 1.29875,-1.645 l 0,-8.6475 c 0,-1.03125 -0.3075,-1.285 -1.82625,-1.285 L 132.9975,5.15 132.96375,4.8625 c 0.015,-0.20125 0.18125,-0.22 0.28875,-0.22 0.4875,0 1.06375,0.0925 2.295,0.0925 0.9075,0 1.99125,-0.0925 2.71375,-0.0925 l 0.0888,0.12625 0,0.3275 -0.0737,0.1075 -0.48875,0.03375 C 137.065,5.29125 136.50375,5.365 136.50375,6.2 l 0,7.86625" /><path
     inkscape:connector-curvature="0"
     id="path66"
     style="fill:#000000;fill-opacity:1;fill-rule:nonzero;stroke:none"
     d="m 146.11375,15.4725 c 0,1.3425 0.9025,1.3425 2.02125,1.3425 l 0.1125,0.0875 0,0.28875 c 0,0.22 -0.0937,0.22 -0.38125,0.22 -0.36125,0 -1.25,-0.09375 -2.515,-0.09375 -0.99625,0 -2.54875,0.09375 -2.9825,0.09375 -0.035,-0.1275 -0.0738,-0.22 -0.0738,-0.3275 0,-0.05375 0.02,-0.16125 0.0738,-0.2 l 0.18,-0.06875 0.215,0 c 1.645,0 1.71875,-0.56125 1.71875,-2.065 l 0,-8.57 -0.0537,-0.835 -2.4225,0 c -1.37625,0 -1.59125,0.87 -1.9325,2.02625 -0.04,0.1125 -0.1075,0.16625 -0.22,0.16625 -0.24875,0 -0.415,-0.0725 -0.415,-0.18 0,-0.3075 0.215,-1.9925 0.215,-3.41875 0,-0.0725 0.25375,-0.0725 0.5075,-0.0725 0.58125,0.77625 0.76125,0.77625 1.5375,0.77625 l 6.72875,0 c 1.265,0 1.62625,-0.38125 2.075,-0.9375 0.1275,0 0.5475,0 0.5475,0.16125 0,0.14625 -0.36125,1.625 -0.4,2.92875 0,0.19625 -0.0538,0.57625 -0.1475,0.57625 -0.16125,0 -0.57625,-0.0875 -0.57625,-0.18 L 149.85375,6.2875 C 149.78,5.365 149.35,5.345 148.60875,5.345 l -2.495,0 0,10.1275" /><path
     inkscape:connector-curvature="0"
     id="path68"
     style="fill:#000000;fill-opacity:1;fill-rule:nonzero;stroke:none"
     d="m 153.99875,6.4875 c 0,-1.17625 -0.88375,-1.30375 -1.93375,-1.30375 -0.0725,0 -0.0725,-0.0875 -0.0725,-0.16125 l 0,-0.2 c 0,-0.16125 0.3075,-0.18 0.9425,-0.18 0.7225,0 1.5375,0.0925 2.295,0.0925 0.7275,0 1.45,-0.0925 2.1725,-0.0925 l 3.81375,0 c 0.14625,0 0.165,0.16125 0.165,0.36125 l 0,2.20625 c 0,0.07375 -0.0387,0.1475 -0.12625,0.1475 -0.14625,0 -0.435,0.01375 -0.45375,-0.20125 L 160.7475,6.595 c -0.1075,-1.1575 -0.90375,-1.3575 -1.92,-1.3575 l -1.86,0 c -1.01,0 -1.3375,0.22 -1.3375,1.5925 l 0,3.27125 c 0,0.05875 0.1075,0.14625 0.14125,0.14625 L 157.905,10.175 c 1.08875,-0.035 1.39625,-0.37625 1.665,-1.33875 0.04,-0.1075 0.0925,-0.14125 0.28875,-0.14125 0.12625,0 0.21875,0.015 0.21875,0.1075 0,0.38125 -0.10625,1.21125 -0.10625,1.80625 0,0.97625 0.10625,1.50375 0.10625,1.81125 0,0.1075 -0.18,0.215 -0.2875,0.215 -0.14625,0 -0.27375,-0.05375 -0.3075,-0.23375 -0.0925,-0.48875 -0.0925,-0.83 -0.18125,-1.08375 -0.0925,-0.27375 -0.3075,-0.40125 -0.84875,-0.42 l -2.56875,-0.05375 c -0.25375,0 -0.25375,0.0925 -0.25375,0.21875 l 0,4.3025 c 0,1.30375 0.9575,1.3375 2.2075,1.3375 l 0.97625,0 c 0.95625,0 1.62625,-0.01875 2.08,-0.2875 0.395,-0.235 0.95625,-1.33875 1.1575,-1.7925 0.23375,0 0.54125,0.05375 0.54125,0.18125 0,0.05875 -0.0538,0.2 -0.0925,0.2925 l -0.5075,1.82625 c -0.1425,0.48875 -0.235,0.48875 -0.46875,0.48875 -1.95375,0 -3.8725,-0.09375 -6.495,-0.09375 -0.59,0 -2.11375,0.09375 -3.03625,0.09375 -0.0538,0 -0.1075,-0.18125 -0.1075,-0.29375 0,-0.14125 0.0388,-0.3025 0.1075,-0.3025 1.57625,-0.07375 2.00625,-0.23875 2.00625,-1.9 l 0,-8.4275" /><path
     inkscape:connector-curvature="0"
     id="path70"
     style="fill:#000000;fill-opacity:1;fill-rule:nonzero;stroke:none"
     d="m 167.68125,14.06625 c 0,2.63625 0.0538,2.65625 1.825,2.74875 l 0.0888,0.1225 0,0.34625 c 0,0.1075 -0.26875,0.1275 -0.435,0.1275 -0.25375,0 -1.465,-0.09375 -2.2025,-0.09375 -0.86875,0 -1.7575,0.09375 -2.695,0.09375 -0.0725,-0.04 -0.0925,-0.1475 -0.0925,-0.3275 0.02,-0.235 0.0538,-0.26875 0.58125,-0.26875 1.245,0 1.29875,-0.27375 1.29875,-1.645 l 0,-8.6475 c 0,-1.03125 -0.3075,-1.285 -1.82625,-1.285 L 164.17,5.15 164.13625,4.8625 c 0.0138,-0.20125 0.18,-0.22 0.2875,-0.22 0.48875,0 1.07,0.0925 2.295,0.0925 0.90375,0 1.9925,-0.0925 2.715,-0.0925 l 0.0875,0.12625 0,0.3275 -0.0688,0.1075 -0.4875,0.03375 C 168.2375,5.29125 167.68125,5.365 167.68125,6.2 l 0,7.86625" /><path
     inkscape:connector-curvature="0"
     id="path72"
     style="fill:#000000;fill-opacity:1;fill-rule:nonzero;stroke:none"
     d="m 177.28,15.4725 c 0,1.3425 0.90875,1.3425 2.02625,1.3425 l 0.1075,0.0875 0,0.28875 c 0,0.22 -0.0875,0.22 -0.37625,0.22 -0.365,0 -1.25,-0.09375 -2.51375,-0.09375 -0.99625,0 -2.54875,0.09375 -2.98375,0.09375 -0.0337,-0.1275 -0.0737,-0.22 -0.0737,-0.3275 0,-0.05375 0.02,-0.16125 0.0737,-0.2 l 0.18125,-0.06875 0.21375,0 c 1.65125,0 1.71875,-0.56125 1.71875,-2.065 l 0,-8.57 -0.0538,-0.835 -2.42125,0 c -1.3775,0 -1.59125,0.87 -1.93375,2.02625 -0.0387,0.1125 -0.1125,0.16625 -0.22,0.16625 -0.24875,0 -0.415,-0.0725 -0.415,-0.18 0,-0.3075 0.215,-1.9925 0.215,-3.41875 0,-0.0725 0.25375,-0.0725 0.5075,-0.0725 0.58125,0.77625 0.7625,0.77625 1.53875,0.77625 l 6.72875,0 c 1.26375,0 1.625,-0.38125 2.08,-0.9375 0.12125,0 0.54125,0 0.54125,0.16125 0,0.14625 -0.36125,1.625 -0.4,2.92875 0,0.19625 -0.0537,0.57625 -0.14125,0.57625 -0.16625,0 -0.58125,-0.0875 -0.58125,-0.18 L 181.025,6.2875 C 180.9575,5.365 180.5175,5.345 179.775,5.345 l -2.495,0 0,10.1275" /><path
     inkscape:connector-curvature="0"
     id="path74"
     style="fill:#000000;fill-opacity:1;fill-rule:nonzero;stroke:none"
     d="m 189.41875,5.8525 c -0.195,-0.4875 -0.9175,-0.615 -1.425,-0.615 l -0.1075,-0.0875 0,-0.47375 0.195,-0.03375 c 0.75625,0 1.86,0.0925 2.26,0.0925 0.83125,0 1.64625,-0.0925 2.47625,-0.0925 l 0.0588,0.05375 -0.0588,0.5075 -0.85,0.07375 c -0.2875,0.01375 -0.61,0.12625 -0.61,0.395 0,0.14625 0.0875,0.38125 0.16125,0.5425 l 2.08,5.42875 1.17625,2.69125 c 0.1225,0.2725 0.1425,0.32625 0.19625,0.32625 0.0387,0 0.0925,-0.0725 0.165,-0.2875 l 2.58375,-6.855 c 0.2875,-0.7775 0.5075,-1.44625 0.4875,-1.66625 -0.0138,-0.3075 -0.1075,-0.4675 -0.63,-0.52125 l -0.94125,-0.09375 -0.1075,-0.05375 0,-0.56125 c 0.7025,0 1.41125,0.1125 2.11375,0.1125 0.56125,0 1.7525,-0.1125 1.88,-0.1125 l 0.14625,0.07375 0,0.415 -0.16625,0.12625 -0.55625,0.04 c -0.36125,0.01375 -0.5075,0.2 -0.76125,0.83 -1.71375,4.14 -2.13375,5.44375 -3.51125,8.935 l -0.9175,2.34875 c -0.0937,0.25375 -0.1275,0.27375 -0.25375,0.27375 -0.16125,0 -0.20125,-0.05375 -0.235,-0.1325 l -4.84875,-11.68" /><path
     inkscape:connector-curvature="0"
     id="path76"
     style="fill:#000000;fill-opacity:1;fill-rule:nonzero;stroke:none"
     d="m 205.98625,11.64375 -2.00625,-5.175 -0.035,0 -1.71875,5.175 3.76,0 z m -3.99375,0.70375 -0.79625,2.5675 c -0.14125,0.47 -0.215,0.885 -0.215,1.1725 0,0.59625 0.85,0.7275 1.3375,0.7275 0.16125,0 0.19625,0.1075 0.19625,0.34125 0,0.18125 -0.015,0.255 -0.1425,0.255 -0.415,0 -1.7375,-0.09375 -2.22625,-0.09375 -0.4875,0 -1.245,0.09375 -1.78625,0.09375 -0.3625,0 -0.3625,-0.05375 -0.3625,-0.29375 l 0,-0.195 c 0,-0.0925 0.16125,-0.1275 0.59625,-0.16625 0.9375,-0.0875 1.065,-0.26875 1.41125,-1.265 l 3.57875,-10.415 c 0.36125,-0.3075 0.7425,-0.7225 1.19125,-0.86875 l 4.54125,11.445 c 0.3075,0.7625 0.63,1.1425 1.685,1.1425 0.195,0 0.22875,0.215 0.22875,0.415 0,0.20125 -0.12125,0.20125 -0.34125,0.20125 -0.28875,0 -1.445,-0.09375 -2.15375,-0.09375 -0.7225,0 -1.445,0.04 -2.1675,0.09375 -0.26875,0 -0.28875,-0.05375 -0.28875,-0.30875 0,-0.2 0.1075,-0.2875 0.36125,-0.2875 0.26875,0 1.1575,-0.05875 1.1575,-0.4925 0,-0.1425 -0.0725,-0.43 -0.32625,-1.065 l -1.1575,-2.91 -4.32125,0" /><path
     inkscape:connector-curvature="0"
     id="path78"
     style="fill:#000000;fill-opacity:1;fill-rule:nonzero;stroke:none"
     d="m 212.63125,6.86875 c 0,-0.36625 -0.0187,-0.45375 -0.0925,-0.6 C 212.3775,5.96 211.5825,5.31125 211.275,5.29125 L 210.3125,5.2375 c -0.0687,0 -0.0875,-0.18 -0.0875,-0.3225 0,-0.0925 0,-0.23875 0.0875,-0.23875 0.56125,0 0.99625,-0.03375 1.45,-0.03375 0.83,0 2.14875,0.0725 2.47625,0.1075 l 5.4775,6.62125 c 0.83125,1.01 1.64625,1.9525 2.95,3.25125 l 0.0688,0 0,-7.95375 c 0,-1.19125 -0.43,-1.3775 -1.01125,-1.39125 l -0.77625,-0.04 c -0.0737,0 -0.1075,-0.18 -0.1075,-0.3025 0,-0.1125 0.0538,-0.2925 0.16125,-0.2925 0.395,0 1.3375,0.0925 2.22625,0.0925 0.81,0 1.68,-0.0925 2.1875,-0.0925 0.0875,0 0.1075,0.0725 0.1075,0.14625 l 0,0.34125 c 0,0.08875 -0.0337,0.1075 -0.16125,0.1075 l -0.47375,0 c -1.245,0 -1.245,0.635 -1.245,2.17375 l 0,10.46875 -0.435,0 -9.765,-11.1575 0,8.3 c 0,1.55375 0.215,1.73375 1.7725,1.7925 0.0725,0 0.12625,0.16125 0.12625,0.3025 0,0.14625 -0.0188,0.29375 -0.0725,0.29375 -0.34625,0 -1.49875,-0.09375 -2.26125,-0.09375 -0.88375,0 -1.28375,0.09375 -2.11375,0.09375 -0.1075,0 -0.1275,-0.1275 -0.1275,-0.36125 0,-0.16625 0.02,-0.235 0.235,-0.235 0.76125,0 1.63,-0.18 1.63,-1.10375 l 0,-8.8425" /><path
     inkscape:connector-curvature="0"
     id="path80"
     style="fill:#000000;fill-opacity:1;fill-rule:nonzero;stroke:none"
     d="m 241.665,9.74 -2.67625,-6.9 -0.0488,0 -2.295,6.9 5.02,0 z m -5.3325,0.9425 -1.06375,3.4275 c -0.19125,0.625 -0.28875,1.18125 -0.28875,1.5675 0,0.79625 1.13375,0.96625 1.7875,0.96625 0.215,0 0.26875,0.1425 0.26875,0.45875 0,0.24 -0.03,0.3375 -0.195,0.3375 -0.5575,0 -2.32,-0.1225 -2.96875,-0.1225 -0.65,0 -1.665,0.1225 -2.3925,0.1225 -0.47875,0 -0.47875,-0.07375 -0.47875,-0.38625 l 0,-0.2675 c 0,-0.1175 0.215,-0.16625 0.79625,-0.215 1.25375,-0.1225 1.425,-0.36125 1.88375,-1.69 L 238.4575,0.98 c 0.4825,-0.41 0.98625,-0.96625 1.59125,-1.1575 l 6.06,15.27875 c 0.41,1.01125 0.84375,1.51875 2.24125,1.51875 0.26875,0 0.3125,0.2875 0.3125,0.55625 0,0.26375 -0.16625,0.26375 -0.455,0.26375 -0.39,0 -1.9325,-0.1225 -2.875,-0.1225 -0.9625,0 -1.92875,0.04875 -2.89625,0.1225 -0.36125,0 -0.385,-0.07375 -0.385,-0.41 0,-0.26875 0.14625,-0.38625 0.4825,-0.38625 0.36625,0 1.54875,-0.0725 1.54875,-0.65375 0,-0.19 -0.0975,-0.57625 -0.44,-1.42125 L 242.1,10.6825 l -5.7675,0" /><path
     inkscape:connector-curvature="0"
     id="path82"
     style="fill:#000000;fill-opacity:1;fill-rule:nonzero;stroke:none"
     d="m 260,4.6425 c 0.55625,0 1.1375,0.05375 1.71375,0.05375 0.45375,0 0.9225,-0.05375 1.3775,-0.05375 0.26875,0 0.32125,0.0725 0.32125,0.12625 l 0,0.28875 c 0,0.12625 -0.0525,0.22 -0.12625,0.22 -0.1275,0 -0.3225,-0.04 -0.5425,-0.04 -1.05,0 -1.05,0.5275 -1.05,1.7 0,1.035 0.20125,7.7925 0.20125,8.78875 0,0.5075 0.25375,1.08875 1.03,1.08875 0.7275,0 0.815,0.03375 0.815,0.195 0,0.22 -0.1075,0.40125 -0.16125,0.40125 -0.95625,0 -1.71875,-0.09375 -2.48,-0.09375 -0.7575,0 -1.53875,0.09375 -2.315,0.09375 -0.12625,0 -0.14125,-0.07375 -0.14125,-0.18125 l 0,-0.18 c 0,-0.18125 0.16125,-0.235 0.99125,-0.235 0.36625,0 0.68875,-0.435 0.68875,-1.06875 0,-1.95375 -0.0687,-6.1675 -0.14625,-9.25875 -0.0687,-0.01875 -0.0487,-0.01875 -0.0487,-0.01875 -1.01625,2.08 -2.335,5.1025 -2.95,6.70875 l -1.70375,4.4675 c -0.015,0.05375 -0.0687,0.1075 -0.16125,0.1075 -0.0875,0 -0.16125,-0.0875 -0.215,-0.34125 -0.1075,-0.455 -0.27375,-0.88875 -0.45375,-1.32375 L 251.225,7.7725 C 251.09875,7.465 250.99125,7.245 250.9225,7.245 c -0.0775,0 -0.0775,0.36125 -0.0775,0.56125 0,1.43125 -0.215,6.89 -0.215,7.77875 0,0.77625 0,1.23 1.59125,1.23 0.1075,0 0.1275,0.0875 0.1275,0.3025 0,0.07375 -0.02,0.29375 -0.0925,0.29375 -0.25375,0 -1.1375,-0.09375 -2.115,-0.09375 -1.03,0 -2.04125,0.09375 -2.295,0.09375 -0.0538,0 -0.11125,-0.05375 -0.11125,-0.1475 l 0,-0.2675 c 0,-0.16625 0.14625,-0.18125 0.365,-0.18125 1.48,0 1.7,-0.45375 1.7,-2.02625 0,-0.88875 0.3025,-7.54375 0.3025,-8.19375 0,-0.95625 -0.46875,-1.3575 -2.095,-1.3575 -0.0537,0 -0.0875,-0.0875 -0.0875,-0.2 l 0,-0.23375 c 0,-0.08875 0.0538,-0.16125 0.14125,-0.16125 0.68875,0 1.33875,0.0925 2.06125,0.0925 0.45375,0 0.9225,-0.0925 1.37625,-0.0925 0.1275,0 0.25375,0.2925 0.3425,0.5275 l 3.90625,9.345 0.0875,0 L 260,4.6425" /><path
     inkscape:connector-curvature="0"
     id="path84"
     style="fill:#000000;fill-opacity:1;fill-rule:nonzero;stroke:none"
     d="m 267.075,10.82875 c -1.30375,-0.78125 -1.82625,-1.50375 -1.82625,-2.91 0,-2.26125 1.84125,-3.53 4.2825,-3.53 0.68875,0 1.665,0.23375 2.28,0.5075 l 0.1275,2.26 0,0.08875 c 0,0.0925 -0.18125,0.12625 -0.435,0.12625 -0.23375,0 -0.26875,-0.1075 -0.2875,-0.2875 -0.1275,-1.21125 -0.99625,-1.9875 -2.28125,-1.9875 -1.23,0 -2.1875,0.86375 -2.1875,2.02625 0,1.29875 0.79625,1.80625 2.6025,2.76375 1.7925,0.9425 3.35,1.7725 3.35,4.03375 0,2.46 -2.22625,3.745 -4.4875,3.745 -0.74125,0 -1.9725,-0.24 -2.65625,-0.5275 -0.14625,-0.07375 -0.2,-0.3075 -0.25375,-0.70375 l -0.22,-1.70375 c 0,-0.1075 0.36625,-0.1075 0.47375,-0.1075 0.0538,0 0.1075,0.03875 0.1425,0.16625 0.42,1.3725 1.3575,2.1675 2.8075,2.1675 1.26375,0 2.475,-1.10375 2.475,-2.33375 0,-1.17125 -0.66875,-1.88 -1.61125,-2.44125 l -2.295,-1.3525" /><path
     inkscape:connector-curvature="0"
     id="path86"
     style="fill:#000000;fill-opacity:1;fill-rule:nonzero;stroke:none"
     d="m 280.3175,15.4725 c 0,1.3425 0.90375,1.3425 2.02125,1.3425 l 0.1125,0.0875 0,0.28875 c 0,0.22 -0.0925,0.22 -0.38125,0.22 -0.36125,0 -1.245,-0.09375 -2.51375,-0.09375 -0.99625,0 -2.55,0.09375 -2.98375,0.09375 -0.0387,-0.1275 -0.0738,-0.22 -0.0738,-0.3275 0,-0.05375 0.02,-0.16125 0.0738,-0.2 l 0.18,-0.06875 0.22,0 c 1.64625,0 1.71375,-0.56125 1.71375,-2.065 l 0,-8.57 -0.0537,-0.835 -2.42125,0 c -1.3725,0 -1.5925,0.87 -1.93375,2.02625 -0.0337,0.1125 -0.1125,0.16625 -0.22,0.16625 -0.25375,0 -0.415,-0.0725 -0.415,-0.18 0,-0.3075 0.22,-1.9925 0.22,-3.41875 0,-0.0725 0.25375,-0.0725 0.5025,-0.0725 0.58125,0.77625 0.7625,0.77625 1.53875,0.77625 l 6.72375,0 c 1.26875,0 1.63,-0.38125 2.085,-0.9375 0.12625,0 0.54125,0 0.54125,0.16125 0,0.14625 -0.36125,1.625 -0.4,2.92875 0,0.19625 -0.0537,0.57625 -0.14125,0.57625 -0.16625,0 -0.58125,-0.0875 -0.58125,-0.18 L 284.0625,6.2875 C 283.985,5.365 283.555,5.345 282.8125,5.345 l -2.495,0 0,10.1275" /><path
     inkscape:connector-curvature="0"
     id="path88"
     style="fill:#000000;fill-opacity:1;fill-rule:nonzero;stroke:none"
     d="m 288.2075,6.4875 c 0,-1.17625 -0.88875,-1.30375 -1.9325,-1.30375 -0.0737,0 -0.0737,-0.0875 -0.0737,-0.16125 l 0,-0.2 c 0,-0.16125 0.3075,-0.18 0.9375,-0.18 0.7225,0 1.5375,0.0925 2.3,0.0925 0.7225,0 1.445,-0.0925 2.1675,-0.0925 l 3.81875,0 c 0.14125,0 0.16125,0.16125 0.16125,0.36125 l 0,2.20625 c 0,0.07375 -0.0387,0.1475 -0.1275,0.1475 -0.14625,0 -0.43375,0.01375 -0.45375,-0.20125 L 294.95125,6.595 C 294.84375,5.4375 294.0475,5.2375 293.0375,5.2375 l -1.865,0 c -1.01125,0 -1.33875,0.22 -1.33875,1.5925 l 0,3.27125 c 0,0.05875 0.1075,0.14625 0.14625,0.14625 l 2.13375,-0.0725 c 1.085,-0.035 1.3925,-0.37625 1.66125,-1.33875 0.0388,-0.1075 0.0925,-0.14125 0.2925,-0.14125 0.12625,0 0.215,0.015 0.215,0.1075 0,0.38125 -0.1075,1.21125 -0.1075,1.80625 0,0.97625 0.1075,1.50375 0.1075,1.81125 0,0.1075 -0.18125,0.215 -0.28875,0.215 -0.14625,0 -0.2725,-0.05375 -0.3075,-0.23375 -0.0925,-0.48875 -0.0925,-0.83 -0.18,-1.08375 -0.0937,-0.27375 -0.3075,-0.40125 -0.85,-0.42 l -2.56875,-0.05375 c -0.25375,0 -0.25375,0.0925 -0.25375,0.21875 l 0,4.3025 c 0,1.30375 0.9575,1.3375 2.2075,1.3375 l 0.97625,0 c 0.9575,0 1.62625,-0.01875 2.08,-0.2875 0.39625,-0.235 0.9575,-1.33875 1.1575,-1.7925 0.23375,0 0.5425,0.05375 0.5425,0.18125 0,0.05875 -0.0538,0.2 -0.0937,0.2925 l -0.5025,1.82625 c -0.14625,0.48875 -0.235,0.48875 -0.47375,0.48875 -1.9525,0 -3.8675,-0.09375 -6.48875,-0.09375 -0.59625,0 -2.115,0.09375 -3.0375,0.09375 -0.0588,0 -0.1075,-0.18125 -0.1075,-0.29375 0,-0.14125 0.0337,-0.3025 0.1075,-0.3025 1.5725,-0.07375 2.00625,-0.23875 2.00625,-1.9 l 0,-8.4275" /><path
     inkscape:connector-curvature="0"
     id="path90"
     style="fill:#000000;fill-opacity:1;fill-rule:nonzero;stroke:none"
     d="m 301.7575,10.4475 c 0.235,0.02 0.455,0.035 0.68875,0.035 1.445,0 3.2525,-0.50375 3.2525,-2.6375 0,-1.59125 -1.085,-2.62625 -2.67625,-2.62625 -1.23,0 -1.265,0.2925 -1.265,0.835 l 0,4.39375 z M 300.13125,6.595 c 0,-0.9025 -0.0388,-1.3575 -1.17625,-1.3575 l -0.7425,0 c -0.1075,0 -0.12625,-0.2 -0.12625,-0.34125 0,-0.0925 0.0537,-0.25375 0.12625,-0.25375 1.05,0 2.12,0.05375 3.165,0.05375 0.835,0 1.645,-0.05375 2.475,-0.05375 1.84625,0 3.6575,1.23 3.6575,3.13 0,1.645 -1.50375,2.74875 -2.915,2.96375 l 0,0.03875 c 0.7075,0.16125 1.45,1.48 1.63,1.7675 l 1.9875,3.0425 c 0.63,0.95625 1.05,1.1375 2.13375,1.19125 l 0.1075,0.1075 0,0.34625 c 0,0.16125 -0.12625,0.18125 -0.195,0.18125 -0.38125,0 -0.9425,-0.05375 -1.21625,-0.05375 -0.43375,0 -0.86375,0.05375 -1.29875,0.05375 -0.415,0 -1.23,-1.21625 -2.3,-3.11125 -1.17125,-2.08 -1.86,-3.2225 -3.05625,-3.2225 -0.14125,0 -0.36125,0 -0.63,0.03875 l 0,4.42875 c 0,0.65 0,1.27 0.90375,1.27 0.68875,0 0.99625,0 0.99625,0.14125 0,0.3425 -0.0538,0.455 -0.3275,0.455 -0.9425,0 -1.71875,-0.09375 -2.495,-0.09375 -0.3075,0 -2.315,0.09375 -2.56875,0.09375 -0.1075,0 -0.14625,-0.235 -0.14625,-0.38125 0,-0.16125 0.0738,-0.2 0.435,-0.215 1.25,-0.05875 1.57625,-0.23875 1.57625,-1.48375 l 0,-8.73625" /><path
     inkscape:connector-curvature="0"
     id="path92"
     style="fill:#000000;fill-opacity:1;fill-rule:nonzero;stroke:none"
     d="m 314.785,14.8225 c 0,1.9925 2.04125,1.9925 2.8375,1.9925 2.475,0 5.11625,-2.04625 5.11625,-5.825 0,-3.2175 -1.7325,-4.81 -2.9825,-5.5325 -0.87,-0.38125 -2.0075,-0.47375 -2.78875,-0.47375 -1.47875,0 -2.1825,0.1125 -2.1825,1.27 l 0,8.56875 z m -1.63125,-8.06625 c 0,-0.68375 -0.14125,-1.39125 -0.815,-1.39125 -0.215,0 -0.79125,0.0725 -1.1375,0.0725 -0.0738,0 -0.0738,-0.2675 -0.0738,-0.36125 0,-0.1075 0,-0.16125 0.3125,-0.23375 1.21125,-0.25375 4.1025,-0.45375 5.655,-0.45375 0.99625,0 1.93875,0.0925 2.8225,0.32625 2.46,0.67 4.755,2.8575 4.755,6.1825 0,4.4875 -3.745,6.51375 -7.1775,6.51375 -1.71875,0 -2.6225,-0.07375 -3.525,-0.07375 -0.90375,0 -1.8075,0.05375 -2.715,0.07375 -0.0688,0 -0.0875,-0.16625 -0.0875,-0.29375 0,-0.12125 0.0875,-0.3025 0.16,-0.3025 0.58125,-0.07375 1.05,-0.1125 1.3775,-0.3275 0.26875,-0.18 0.44875,-0.47375 0.44875,-1.05 l 0,-8.68125" /><path
     inkscape:connector-curvature="0"
     id="path94"
     style="fill:#000000;fill-opacity:1;fill-rule:nonzero;stroke:none"
     d="m 331.3675,11.64375 -2.0075,-5.175 -0.0387,0 -1.71375,5.175 3.76,0 z m -3.99875,0.70375 -0.79125,2.5675 c -0.14625,0.47 -0.22,0.885 -0.22,1.1725 0,0.59625 0.85,0.7275 1.3375,0.7275 0.16125,0 0.2,0.1075 0.2,0.34125 0,0.18125 -0.0187,0.255 -0.14625,0.255 -0.415,0 -1.73375,-0.09375 -2.22125,-0.09375 -0.48875,0 -1.25,0.09375 -1.7925,0.09375 -0.36125,0 -0.36125,-0.05375 -0.36125,-0.29375 l 0,-0.195 c 0,-0.0925 0.16625,-0.1275 0.59625,-0.16625 0.9425,-0.0875 1.06875,-0.26875 1.41125,-1.265 L 328.96,5.07625 c 0.36125,-0.3075 0.7425,-0.7225 1.19625,-0.86875 l 4.53625,11.445 c 0.3125,0.7625 0.635,1.1425 1.685,1.1425 0.2,0 0.23375,0.215 0.23375,0.415 0,0.20125 -0.12625,0.20125 -0.34125,0.20125 -0.28875,0 -1.45125,-0.09375 -2.15375,-0.09375 -0.7225,0 -1.445,0.04 -2.1725,0.09375 -0.26875,0 -0.28875,-0.05375 -0.28875,-0.30875 0,-0.2 0.1125,-0.2875 0.36125,-0.2875 0.27375,0 1.1575,-0.05875 1.1575,-0.4925 0,-0.1425 -0.0687,-0.43 -0.3225,-1.065 l -1.1575,-2.91 -4.325,0" /><path
     inkscape:connector-curvature="0"
     id="path96"
     style="fill:#000000;fill-opacity:1;fill-rule:nonzero;stroke:none"
     d="m 348.8375,4.6425 c 0.5625,0 1.1425,0.05375 1.71875,0.05375 0.455,0 0.92375,-0.05375 1.3775,-0.05375 0.26875,0 0.3225,0.0725 0.3225,0.12625 l 0,0.28875 c 0,0.12625 -0.0538,0.22 -0.1225,0.22 -0.1275,0 -0.3275,-0.04 -0.54625,-0.04 -1.045,0 -1.045,0.5275 -1.045,1.7 0,1.035 0.195,7.7925 0.195,8.78875 0,0.5075 0.25375,1.08875 1.035,1.08875 0.7175,0 0.81,0.03375 0.81,0.195 0,0.22 -0.1075,0.40125 -0.16,0.40125 -0.9625,0 -1.72,-0.09375 -2.48125,-0.09375 -0.75625,0 -1.5325,0.09375 -2.31375,0.09375 -0.1275,0 -0.1475,-0.07375 -0.1475,-0.18125 l 0,-0.18 c 0,-0.18125 0.16625,-0.235 0.99625,-0.235 0.36125,0 0.68875,-0.435 0.68875,-1.06875 0,-1.95375 -0.0738,-6.1675 -0.14125,-9.25875 -0.0738,-0.01875 -0.0588,-0.01875 -0.0588,-0.01875 -1.01125,2.08 -2.33375,5.1025 -2.945,6.70875 l -1.69875,4.4675 c -0.02,0.05375 -0.0775,0.1075 -0.16625,0.1075 -0.0875,0 -0.16125,-0.0875 -0.215,-0.34125 -0.1075,-0.455 -0.2725,-0.88875 -0.45375,-1.32375 l -3.4175,-8.315 c -0.1275,-0.3075 -0.235,-0.5275 -0.3075,-0.5275 -0.0688,0 -0.0688,0.36125 -0.0688,0.56125 0,1.43125 -0.22,6.89 -0.22,7.77875 0,0.77625 0,1.23 1.5925,1.23 0.1075,0 0.12625,0.0875 0.12625,0.3025 0,0.07375 -0.0188,0.29375 -0.0925,0.29375 -0.24875,0 -1.1375,-0.09375 -2.11375,-0.09375 -1.03125,0 -2.04625,0.09375 -2.295,0.09375 -0.0537,0 -0.1075,-0.05375 -0.1075,-0.1475 l 0,-0.2675 c 0,-0.16625 0.14125,-0.18125 0.35625,-0.18125 1.48375,0 1.70375,-0.45375 1.70375,-2.02625 0,-0.88875 0.3075,-7.54375 0.3075,-8.19375 0,-0.95625 -0.46875,-1.3575 -2.1,-1.3575 -0.0525,0 -0.0925,-0.0875 -0.0925,-0.2 l 0,-0.23375 c 0,-0.08875 0.0588,-0.16125 0.14625,-0.16125 0.68875,0 1.33875,0.0925 2.06625,0.0925 0.44875,0 0.9175,-0.0925 1.37125,-0.0925 0.1275,0 0.255,0.2925 0.3425,0.5275 l 3.90625,9.345 0.0925,0 4.155,-9.8725" /></svg>