<?xml version="1.0" encoding="UTF-8" standalone="no"?>
<!-- Created with Inkscape (http://www.inkscape.org/) -->

<svg
   xmlns:svg="http://www.w3.org/2000/svg"
   xmlns="http://www.w3.org/2000/svg"
   xmlns:sodipodi="http://sodipodi.sourceforge.net/DTD/sodipodi-0.dtd"
   xmlns:inkscape="http://www.inkscape.org/namespaces/inkscape"
   id="svg2"
   version="1.1"
   xml:space="preserve"
   width="322.5"
   height="34.888"
   viewBox="0 0 322.5 34.888"
   sodipodi:docname="logoUvA_en.svg"
   inkscape:version="0.91 r13725"><sodipodi:namedview
     pagecolor="#ffffff"
     bordercolor="#666666"
     borderopacity="1"
     objecttolerance="10"
     gridtolerance="10"
     guidetolerance="10"
     inkscape:pageopacity="0"
     inkscape:pageshadow="2"
     inkscape:window-width="1920"
     inkscape:window-height="1016"
     id="namedview39"
     showgrid="false"
     inkscape:zoom="15.181395"
     inkscape:cx="29.02127"
     inkscape:cy="19.119193"
     inkscape:window-x="0"
     inkscape:window-y="27"
     inkscape:window-maximized="1"
     inkscape:current-layer="svg2" /><defs
     id="defs6"><clipPath
       clipPathUnits="userSpaceOnUse"
       id="clipPath18"><path
         d="m 0,28.262 257.645,0 L 257.645,0 0,0 0,28.262 Z"
         id="path20"
         inkscape:connector-curvature="0" /></clipPath><clipPath
       clipPathUnits="userSpaceOnUse"
       id="clipPath28"><path
         d="M 0,0 258,0 258,29 0,29 0,0 Z"
         id="path30"
         inkscape:connector-curvature="0" /></clipPath></defs><path
     inkscape:connector-curvature="0"
     id="path34"
     style="fill:#000000;fill-opacity:1;fill-rule:nonzero;stroke:none"
     d="m 0,0 34.888,0 0,34.888 L 0,34.888 0,0 Z" /><path
     inkscape:connector-curvature="0"
     id="path36"
     style="fill:#ffffff;fill-opacity:1;fill-rule:nonzero;stroke:none"
     d="m 9.2925,10.518 c 0,0 0.84875,0.03375 1.43,0.03875 0.7125,0.005 1.32875,-0.15625 1.3425,-0.06375 0.03,0.17125 0.04875,7.8075 0.04875,7.8075 0,0 0.08375,1.63125 0.48375,2.46125 0.70375,1.455 3.82875,1.5775 3.82875,1.5775 0,0 0.4875,0.05875 1.57625,-0.025 1.085,-0.0875 3.20375,-0.4 3.8875,-1.68375 0,0 0.4875,-0.5475 0.66375,-3.62875 0.18125,-3.23625 -0.24875,-6.44 -0.24875,-6.44 l 3.0325,-0.13625 c 0,0 -0.20625,2.285 -0.215,6.57625 0,4.2875 0.395,6.8075 0.395,6.8075 l -3.0025,0.88375 0.005,-3.17875 -1.43125,1.3425 c 0,0 -0.835,0.85875 -2.72,1.3425 -1.88375,0.48375 -3.32,0.39625 -4.175,0.22 -0.85875,-0.17125 -1.63,-0.4 -2.11375,-0.63 -0.48875,-0.22875 -1.3425,-0.65875 -2.11375,-1.86 -0.46,-0.70875 -0.46,-2.485 -0.46,-2.485 L 9.54625,16.123 9.2925,10.518" /><path
     style="fill:#ffffff;fill-opacity:1;fill-rule:nonzero;stroke:none"
     d="M 14.814453 1.3046875 L 13.359375 2.7597656 L 15.910156 5.3164062 L 13.183594 8.0371094 L 14.638672 9.4980469 L 17.367188 6.7753906 L 20.064453 9.4785156 L 21.519531 8.0234375 L 18.824219 5.3222656 L 21.357422 2.7929688 L 19.902344 1.3320312 L 17.367188 3.8632812 L 14.814453 1.3046875 z "
     id="path38" /><path
     style="fill:#ffffff;fill-opacity:1;fill-rule:nonzero;stroke:none"
     d="M 14.824219 11.464844 L 13.369141 12.919922 L 15.919922 15.474609 L 13.193359 18.193359 L 14.648438 19.652344 L 17.375 16.933594 L 20.074219 19.638672 L 21.529297 18.183594 L 18.830078 15.480469 L 21.367188 12.949219 L 19.912109 11.494141 L 17.376953 14.021484 L 14.824219 11.464844 z "
     id="path42" /><path
     style="fill:#ffffff;fill-opacity:1;fill-rule:nonzero;stroke:none"
     d="M 14.810547 25.015625 L 13.355469 26.470703 L 15.908203 29.029297 L 13.179688 31.753906 L 14.632812 33.207031 L 17.359375 30.484375 L 20.058594 33.189453 L 21.513672 31.734375 L 18.816406 29.03125 L 21.347656 26.503906 L 19.898438 25.048828 L 17.365234 27.576172 L 14.810547 25.015625 z "
     id="path46" /><path
     inkscape:connector-curvature="0"
     id="path50"
     style="fill:#000000;fill-opacity:1;fill-rule:nonzero;stroke:none"
     d="m 211.1375,9.917 -2.675,-6.9 -0.05,0 -2.29375,6.9 5.01875,0 z m -5.33125,0.9425 -1.065,3.4225 c -0.19,0.63 -0.28875,1.18625 -0.28875,1.5725 0,0.79625 1.13375,0.96625 1.7875,0.96625 0.215,0 0.26875,0.1425 0.26875,0.455 0,0.24375 -0.0288,0.34125 -0.195,0.34125 -0.5575,0 -2.32,-0.1225 -2.96875,-0.1225 -0.65,0 -1.665,0.1225 -2.3925,0.1225 -0.47875,0 -0.47875,-0.07375 -0.47875,-0.38625 l 0,-0.2675 c 0,-0.1175 0.215,-0.16625 0.79625,-0.215 1.255,-0.1225 1.425,-0.36125 1.88375,-1.69 L 207.93,1.157 c 0.4825,-0.41 0.98625,-0.96625 1.59125,-1.1575 l 6.06,15.27875 c 0.41,1.01125 0.845,1.51875 2.24125,1.51875 0.26875,0 0.3125,0.2875 0.3125,0.55125 0,0.26875 -0.16625,0.26875 -0.45375,0.26875 -0.39125,0 -1.93375,-0.1225 -2.87625,-0.1225 -0.9625,0 -1.92875,0.04875 -2.89625,0.1225 -0.36125,0 -0.385,-0.07375 -0.385,-0.41 0,-0.26875 0.14625,-0.38625 0.4825,-0.38625 0.36625,0 1.54875,-0.0725 1.54875,-0.65375 0,-0.19 -0.0975,-0.57625 -0.44,-1.42125 l -1.5425,-3.88625 -5.76625,0" /><path
     inkscape:connector-curvature="0"
     id="path52"
     style="fill:#000000;fill-opacity:1;fill-rule:nonzero;stroke:none"
     d="m 229.4725,4.69625 c 0.55625,0 1.1375,0.05375 1.71375,0.05375 0.45375,0 0.92375,-0.05375 1.3775,-0.05375 0.26875,0 0.3225,0.0725 0.3225,0.12625 l 0,0.28875 c 0,0.12625 -0.0537,0.22 -0.1275,0.22 -0.1275,0 -0.3225,-0.04 -0.5425,-0.04 -1.04875,0 -1.04875,0.5275 -1.04875,1.7 0,1.035 0.2,7.7925 0.2,8.78875 0,0.5075 0.25375,1.08875 1.03,1.08875 0.7275,0 0.815,0.03375 0.815,0.195 0,0.215 -0.1075,0.40125 -0.16125,0.40125 -0.95625,0 -1.71875,-0.09375 -2.48,-0.09375 -0.75625,0 -1.5375,0.09375 -2.315,0.09375 -0.12625,0 -0.14125,-0.07375 -0.14125,-0.18625 l 0,-0.175 c 0,-0.18625 0.16125,-0.235 0.99125,-0.235 0.36625,0 0.68875,-0.44 0.68875,-1.06875 0,-1.95375 -0.0687,-6.1675 -0.14625,-9.25875 C 229.58,6.5225 229.6,6.5225 229.6,6.5225 c -1.01625,2.08 -2.335,5.1025 -2.95,6.70875 l -1.70375,4.4675 c -0.015,0.05375 -0.0687,0.1075 -0.16125,0.1075 -0.0875,0 -0.16125,-0.0875 -0.215,-0.34125 -0.1075,-0.455 -0.2725,-0.88875 -0.45375,-1.32375 l -3.4175,-8.32 c -0.1275,-0.3075 -0.235,-0.5225 -0.30375,-0.5225 -0.0775,0 -0.0775,0.36125 -0.0775,0.56125 0,1.43125 -0.215,6.89 -0.215,7.77875 0,0.77625 0,1.23 1.59125,1.23 0.1075,0 0.1275,0.0875 0.1275,0.3025 0,0.07375 -0.02,0.29375 -0.0925,0.29375 -0.25375,0 -1.1375,-0.09375 -2.115,-0.09375 -1.03,0 -2.04,0.09375 -2.295,0.09375 -0.0538,0 -0.11125,-0.05375 -0.11125,-0.1475 l 0,-0.2725 c 0,-0.16125 0.14625,-0.17625 0.36625,-0.17625 1.47875,0 1.69875,-0.45375 1.69875,-2.02625 0,-0.88875 0.3025,-7.54375 0.3025,-8.19375 0,-0.95625 -0.46875,-1.3575 -2.095,-1.3575 -0.0537,0 -0.0875,-0.0875 -0.0875,-0.2 l 0,-0.23375 c 0,-0.08875 0.0537,-0.16125 0.14125,-0.16125 0.68875,0 1.33875,0.0875 2.06125,0.0875 0.45375,0 0.9225,-0.0875 1.37625,-0.0875 0.1275,0 0.25375,0.2925 0.3425,0.5275 l 3.90625,9.345 0.0875,0 4.165,-9.8725" /><path
     inkscape:connector-curvature="0"
     id="path54"
     style="fill:#000000;fill-opacity:1;fill-rule:nonzero;stroke:none"
     d="m 236.5475,10.8775 c -1.30375,-0.77625 -1.82625,-1.49875 -1.82625,-2.905 0,-2.26125 1.84125,-3.53 4.2825,-3.53 0.68875,0 1.665,0.23375 2.28,0.5075 l 0.1275,2.26 0,0.08875 c 0,0.0925 -0.18125,0.12625 -0.435,0.12625 -0.23375,0 -0.26875,-0.1075 -0.2875,-0.2875 -0.1275,-1.21125 -0.99625,-1.9875 -2.28,-1.9875 -1.23125,0 -2.1875,0.86375 -2.1875,2.02625 0,1.29875 0.795,1.80625 2.6025,2.76375 1.79125,0.9375 3.34875,1.7725 3.34875,4.03375 0,2.455 -2.22625,3.745 -4.4875,3.745 -0.74125,0 -1.9725,-0.24 -2.65625,-0.5275 -0.14625,-0.07375 -0.2,-0.3075 -0.25375,-0.70375 l -0.21875,-1.70375 c 0,-0.1075 0.36625,-0.1075 0.4725,-0.1075 0.0538,0 0.1075,0.03375 0.1425,0.16625 0.42,1.3725 1.3575,2.1675 2.8075,2.1675 1.265,0 2.475,-1.10375 2.475,-2.33375 0,-1.17125 -0.66875,-1.88 -1.61125,-2.44125 l -2.295,-1.3575" /><path
     inkscape:connector-curvature="0"
     id="path56"
     style="fill:#000000;fill-opacity:1;fill-rule:nonzero;stroke:none"
     d="m 249.79,15.52625 c 0,1.3425 0.90375,1.3425 2.02125,1.3425 l 0.1125,0.0875 0,0.28875 c 0,0.22 -0.0925,0.22 -0.38125,0.22 -0.36125,0 -1.245,-0.09375 -2.51375,-0.09375 -0.99625,0 -2.54875,0.09375 -2.98375,0.09375 -0.0387,-0.1275 -0.0737,-0.22 -0.0737,-0.3275 0,-0.05375 0.02,-0.16625 0.0737,-0.2 l 0.18,-0.06875 0.22,0 c 1.64625,0 1.71375,-0.56125 1.71375,-2.065 l 0,-8.57 -0.0538,-0.835 -2.42125,0 c -1.3725,0 -1.5925,0.87 -1.93375,2.02625 -0.0337,0.1075 -0.1125,0.16125 -0.22,0.16125 -0.25375,0 -0.415,-0.0725 -0.415,-0.175 0,-0.3075 0.22,-1.9925 0.22,-3.41875 0,-0.0725 0.25375,-0.0725 0.5025,-0.0725 0.58125,0.77625 0.7625,0.77625 1.53875,0.77625 l 6.72375,0 c 1.26875,0 1.63,-0.38125 2.085,-0.9375 0.12625,0 0.54125,0 0.54125,0.16125 0,0.14625 -0.36125,1.625 -0.4,2.92875 0,0.19625 -0.0537,0.57625 -0.14125,0.57625 -0.16625,0 -0.58125,-0.0875 -0.58125,-0.18 L 253.535,6.34125 c -0.0775,-0.9225 -0.5075,-0.9425 -1.25,-0.9425 l -2.495,0 0,10.1275" /><path
     inkscape:connector-curvature="0"
     id="path58"
     style="fill:#000000;fill-opacity:1;fill-rule:nonzero;stroke:none"
     d="m 257.68125,6.54125 c 0,-1.17625 -0.88875,-1.30375 -1.93375,-1.30375 -0.0737,0 -0.0737,-0.0875 -0.0737,-0.16125 l 0,-0.2 c 0,-0.16625 0.3075,-0.18 0.9375,-0.18 0.7225,0 1.53875,0.0875 2.3,0.0875 0.7225,0 1.445,-0.0875 2.1675,-0.0875 l 3.81875,0 c 0.14125,0 0.16125,0.16125 0.16125,0.36125 l 0,2.20625 c 0,0.07375 -0.0387,0.1475 -0.1275,0.1475 -0.14625,0 -0.43375,0.01375 -0.45375,-0.20125 l -0.0538,-0.56125 C 264.31625,5.49125 263.52,5.29125 262.51,5.29125 l -1.865,0 c -1.01125,0 -1.33875,0.22 -1.33875,1.5925 l 0,3.27125 c 0,0.05875 0.1075,0.14625 0.14625,0.14625 l 2.135,-0.0725 c 1.08375,-0.035 1.39125,-0.37625 1.66,-1.33875 0.0387,-0.1075 0.0925,-0.14125 0.2925,-0.14125 0.1275,0 0.215,0.015 0.215,0.1075 0,0.38125 -0.1075,1.21125 -0.1075,1.80625 0,0.97625 0.1075,1.50375 0.1075,1.81125 0,0.1075 -0.18125,0.215 -0.28875,0.215 -0.14625,0 -0.2725,-0.05375 -0.3075,-0.23375 -0.0925,-0.48875 -0.0925,-0.83 -0.18,-1.08375 -0.0925,-0.27375 -0.3075,-0.40125 -0.85,-0.42 L 259.56,10.8975 c -0.25375,0 -0.25375,0.0925 -0.25375,0.215 l 0,4.30625 c 0,1.30375 0.9575,1.3375 2.2075,1.3375 l 0.97625,0 c 0.9575,0 1.62625,-0.01875 2.08,-0.2875 0.39625,-0.235 0.9575,-1.33875 1.1575,-1.7925 0.235,0 0.5425,0.05375 0.5425,0.18125 0,0.05875 -0.0537,0.2 -0.0937,0.2925 l -0.5025,1.82125 C 265.5275,17.465 265.44,17.465 265.2,17.465 c -1.9525,0 -3.8675,-0.09375 -6.48875,-0.09375 -0.59625,0 -2.115,0.09375 -3.0375,0.09375 -0.0588,0 -0.1075,-0.18625 -0.1075,-0.29375 0,-0.14125 0.0337,-0.3025 0.1075,-0.3025 1.5725,-0.07375 2.0075,-0.23875 2.0075,-1.9 l 0,-8.4275" /><path
     inkscape:connector-curvature="0"
     id="path60"
     style="fill:#000000;fill-opacity:1;fill-rule:nonzero;stroke:none"
     d="m 271.23,10.50125 c 0.235,0.02 0.455,0.035 0.68875,0.035 1.445,0 3.2525,-0.50875 3.2525,-2.6375 0,-1.59125 -1.08375,-2.62625 -2.67625,-2.62625 -1.23,0 -1.265,0.2925 -1.265,0.835 l 0,4.39375 z m -1.625,-3.8525 c 0,-0.9025 -0.04,-1.3575 -1.1775,-1.3575 l -0.7425,0 c -0.1075,0 -0.12625,-0.2 -0.12625,-0.34125 0,-0.0925 0.0538,-0.25375 0.12625,-0.25375 1.05,0 2.12,0.05375 3.165,0.05375 0.835,0 1.645,-0.05375 2.475,-0.05375 1.84625,0 3.6575,1.23 3.6575,3.125 0,1.65 -1.50375,2.74875 -2.915,2.96875 l 0,0.03375 c 0.7075,0.16625 1.45,1.485 1.63125,1.7725 l 1.98625,3.0425 c 0.63,0.95625 1.05,1.1375 2.13375,1.19125 l 0.1075,0.1075 0,0.34125 c 0,0.16625 -0.12625,0.18625 -0.195,0.18625 -0.38125,0 -0.9425,-0.05375 -1.21625,-0.05375 -0.43375,0 -0.86375,0.05375 -1.29875,0.05375 -0.415,0 -1.23,-1.21625 -2.29875,-3.11125 -1.1725,-2.08 -1.86125,-3.2225 -3.0575,-3.2225 -0.14125,0 -0.36125,0 -0.63,0.03875 l 0,4.42875 c 0,0.65 0,1.27 0.90375,1.27 0.68875,0 0.99625,0 0.99625,0.14125 0,0.3425 -0.0537,0.455 -0.3275,0.455 -0.9425,0 -1.71875,-0.09375 -2.495,-0.09375 -0.3075,0 -2.31375,0.09375 -2.56875,0.09375 -0.1075,0 -0.14625,-0.24 -0.14625,-0.38125 0,-0.16625 0.0738,-0.2 0.435,-0.215 1.25,-0.05875 1.5775,-0.23875 1.5775,-1.48375 l 0,-8.73625" /><path
     inkscape:connector-curvature="0"
     id="path62"
     style="fill:#000000;fill-opacity:1;fill-rule:nonzero;stroke:none"
     d="m 284.2575,14.87625 c 0,1.9925 2.04125,1.9925 2.8375,1.9925 2.475,0 5.1175,-2.04625 5.1175,-5.825 0,-3.2225 -1.73375,-4.81 -2.98375,-5.5325 C 288.36,5.13 287.22125,5.0375 286.44,5.0375 c -1.47875,0 -2.1825,0.1125 -2.1825,1.27 l 0,8.56875 z M 282.6275,6.81 c 0,-0.68375 -0.1425,-1.39125 -0.81625,-1.39125 -0.215,0 -0.79125,0.0725 -1.1375,0.0725 -0.0737,0 -0.0737,-0.2675 -0.0737,-0.36125 0,-0.1075 0,-0.16125 0.3125,-0.23375 1.21125,-0.25375 4.1025,-0.45375 5.655,-0.45375 0.99625,0 1.93875,0.0925 2.8225,0.32625 2.46,0.67 4.755,2.8575 4.755,6.1825 0,4.4875 -3.745,6.51375 -7.1775,6.51375 -1.71875,0 -2.62125,-0.07375 -3.525,-0.07375 -0.90375,0 -1.80625,0.05375 -2.715,0.07375 -0.0688,0 -0.0875,-0.16625 -0.0875,-0.29375 0,-0.12625 0.0875,-0.3025 0.16125,-0.3025 0.58,-0.07375 1.04875,-0.1125 1.37625,-0.3275 0.26875,-0.18 0.45,-0.47375 0.45,-1.05 l 0,-8.68125" /><path
     inkscape:connector-curvature="0"
     id="path64"
     style="fill:#000000;fill-opacity:1;fill-rule:nonzero;stroke:none"
     d="m 300.84,11.6975 -2.0075,-5.175 -0.0387,0 -1.71375,5.175 3.76,0 z m -3.99875,0.70375 -0.79125,2.5675 c -0.14625,0.47 -0.22,0.885 -0.22,1.1725 0,0.59625 0.85,0.7275 1.3375,0.7275 0.16125,0 0.20125,0.1025 0.20125,0.3375 0,0.185 -0.02,0.25875 -0.1475,0.25875 -0.415,0 -1.7325,-0.09375 -2.22125,-0.09375 -0.48875,0 -1.25,0.09375 -1.7925,0.09375 -0.36125,0 -0.36125,-0.05375 -0.36125,-0.29375 l 0,-0.2 c 0,-0.0875 0.16625,-0.1225 0.59625,-0.16125 0.9425,-0.0875 1.06875,-0.26875 1.41125,-1.265 L 298.4325,5.13 c 0.36125,-0.3075 0.7425,-0.7225 1.19625,-0.86875 l 4.53625,11.445 c 0.3125,0.7625 0.635,1.1425 1.685,1.1425 0.2,0 0.23375,0.215 0.23375,0.415 0,0.20125 -0.12625,0.20125 -0.34125,0.20125 -0.28875,0 -1.45,-0.09375 -2.15375,-0.09375 -0.7225,0 -1.445,0.04 -2.1725,0.09375 -0.26875,0 -0.28875,-0.05375 -0.28875,-0.3125 0,-0.19625 0.1125,-0.28375 0.36125,-0.28375 0.27375,0 1.1575,-0.05875 1.1575,-0.4925 0,-0.1425 -0.0688,-0.43 -0.3225,-1.065 l -1.15625,-2.91 -4.32625,0" /><path
     inkscape:connector-curvature="0"
     id="path66"
     style="fill:#000000;fill-opacity:1;fill-rule:nonzero;stroke:none"
     d="m 318.31,4.69625 c 0.5625,0 1.1425,0.05375 1.71875,0.05375 0.455,0 0.92375,-0.05375 1.3775,-0.05375 0.26875,0 0.3225,0.0725 0.3225,0.12625 l 0,0.28875 c 0,0.12625 -0.0537,0.22 -0.1225,0.22 -0.12625,0 -0.3275,-0.04 -0.54625,-0.04 -1.045,0 -1.045,0.5275 -1.045,1.7 0,1.035 0.195,7.7925 0.195,8.78875 0,0.5075 0.25375,1.08875 1.035,1.08875 0.7175,0 0.81125,0.03375 0.81125,0.195 0,0.215 -0.1075,0.40125 -0.16125,0.40125 -0.9625,0 -1.71875,-0.09375 -2.48125,-0.09375 -0.75625,0 -1.5325,0.09375 -2.31375,0.09375 -0.1275,0 -0.1475,-0.07375 -0.1475,-0.18625 l 0,-0.175 c 0,-0.18625 0.16625,-0.235 0.99625,-0.235 0.36125,0 0.68875,-0.44 0.68875,-1.06875 0,-1.95375 -0.0725,-6.1675 -0.14125,-9.25875 -0.0737,-0.01875 -0.0587,-0.01875 -0.0587,-0.01875 -1.01125,2.08 -2.33375,5.1025 -2.94375,6.70875 l -1.7,4.4675 c -0.0188,0.05375 -0.0775,0.1075 -0.16625,0.1075 -0.0875,0 -0.16125,-0.0875 -0.215,-0.34125 -0.10625,-0.455 -0.2725,-0.88875 -0.45375,-1.32375 l -3.4175,-8.32 c -0.1275,-0.3075 -0.235,-0.5225 -0.3075,-0.5225 -0.0687,0 -0.0687,0.36125 -0.0687,0.56125 0,1.43125 -0.22,6.89 -0.22,7.77875 0,0.77625 0,1.23 1.5925,1.23 0.1075,0 0.12625,0.0875 0.12625,0.3025 0,0.07375 -0.0188,0.29375 -0.0925,0.29375 -0.24875,0 -1.1375,-0.09375 -2.11375,-0.09375 -1.03125,0 -2.04625,0.09375 -2.295,0.09375 -0.0538,0 -0.1075,-0.05375 -0.1075,-0.1475 l 0,-0.2725 c 0,-0.16125 0.14125,-0.17625 0.35625,-0.17625 1.48375,0 1.70375,-0.45375 1.70375,-2.02625 0,-0.88875 0.3075,-7.54375 0.3075,-8.19375 0,-0.95625 -0.46875,-1.3575 -2.09875,-1.3575 -0.0538,0 -0.0937,-0.0875 -0.0937,-0.2 l 0,-0.23375 c 0,-0.08875 0.0587,-0.16125 0.1475,-0.16125 0.6875,0 1.3375,0.0875 2.065,0.0875 0.44875,0 0.9175,-0.0875 1.3725,-0.0875 0.12625,0 0.25375,0.2925 0.34125,0.5275 l 3.90625,9.345 0.0925,0 4.155,-9.8725" /><path
     inkscape:connector-curvature="0"
     id="path68"
     style="fill:#000000;fill-opacity:1;fill-rule:nonzero;stroke:none"
     d="m 182.8125,11.1075 c 0,-3.0275 -2.075,-6.11375 -5.3225,-6.11375 -3.335,0 -4.94125,2.6175 -4.94125,5.66375 0,3.08125 1.875,6.275 5.23,6.275 3.32,0 5.03375,-2.72 5.03375,-5.825 z M 170.62,11.25375 c 0,-3.77 3.2275,-6.85625 6.9625,-6.85625 3.785,0 7.15875,2.59875 7.15875,6.34875 0,3.6275 -3.50125,6.88875 -7.09,6.88875 -3.765,0 -7.03125,-2.45125 -7.03125,-6.38125" /><path
     inkscape:connector-curvature="0"
     id="path70"
     style="fill:#000000;fill-opacity:1;fill-rule:nonzero;stroke:none"
     d="M 186.94875,6.67375 C 186.94875,5.575 186.7675,5.34 185.7025,5.34 l -0.3025,0 c -0.3225,0.02 -0.46875,-0.03875 -0.46875,-0.14625 0,-0.14125 0,-0.44875 0.2,-0.44875 l 7.39375,0 c 0.61,0 1.225,-0.0925 1.855,-0.0925 0.1075,0 0.25375,0.01875 0.25375,0.165 l 0.0738,2.03625 c 0,0.1225 0.0137,0.25375 0.0137,0.37625 0,0.07375 -0.14125,0.1075 -0.32125,0.1075 l -0.27375,0 c -0.035,-0.215 -0.0687,-0.43 -0.1275,-0.625 L 193.8375,6.15125 C 193.6425,5.4475 193.12,5.34 192.55875,5.34 l -2.525,0 c -1.3325,0 -1.46,0.41125 -1.46,1.72875 l 0,3.17375 2.66625,0 c 1.5525,0 1.92875,-0.42875 1.92875,-1.42 0.18625,-0.04 0.36125,-0.09375 0.48875,-0.09375 0.0725,0 0.1125,0.035 0.1125,0.1275 0,0.14125 -0.0738,0.415 -0.0738,1.72875 0,0.5225 0.0738,1.46 0.0738,1.86 0,0.16125 -0.1275,0.23 -0.3275,0.23 -0.14125,0 -0.2,-0.16125 -0.27375,-0.45 -0.12125,-0.7375 -0.48375,-1.38625 -2.01625,-1.38625 l -2.57875,0 0,4.72625 c 0,0.70375 0.0937,1.07875 1.01125,1.1525 l 0.9375,0.07375 c 0.0875,0 0.1225,0.10625 0.1225,0.23375 0,0.14125 0,0.35625 -0.19625,0.35625 -1.3525,0 -1.92875,-0.0875 -2.7775,-0.0875 -0.7375,0 -2.07125,0.0875 -2.55875,0.0875 -0.14625,0 -0.14625,-0.18 -0.14625,-0.3225 0,-0.1075 0.0188,-0.2675 0.0925,-0.2675 L 185.855,16.7375 c 0.95125,-0.07375 1.09375,-0.29375 1.09375,-1.3525 l 0,-8.71125" /><path
     inkscape:connector-curvature="0"
     id="path72"
     style="fill:#000000;fill-opacity:1;fill-rule:nonzero;stroke:none"
     d="m 46.7825,3.13375 c 0,-1.9 -1.1575,-1.9 -2.48125,-1.9 L 44.18,1.13625 l 0,-0.41 c 0,-0.26375 0.16625,-0.2875 0.43375,-0.2875 0.625,0 2.16875,0.12125 3.30125,0.12125 1.20125,0 2.42625,-0.12125 3.6325,-0.12125 l 0.07375,0.0725 0,0.625 -0.1225,0.0975 -0.2875,0 c -1.5625,0 -2.26625,0.16625 -2.26625,1.9725 l 0,6.9825 c 0,3.4725 0.67875,6.19125 4.82,6.19125 4.31125,0 5.7025,-2.07 5.7025,-6.1425 l 0,-6.25875 c 0,-2.745 0,-2.55375 -2.11375,-2.745 l -0.0975,-0.195 0,-0.45375 0.0725,-0.14625 c 0.43,0 0.91375,0.12125 2.72,0.12125 1.01125,0 2.285,-0.12125 3.05625,-0.12125 l 0.0975,0.14625 0,0.5025 -0.14625,0.14625 c -1.7525,0 -2.3825,0.0975 -2.3825,1.29875 l 0,8.59375 c 0,4.415 -2.5775,6.65125 -6.9575,6.65125 -3.49125,0 -6.93375,-1.22625 -6.93375,-5.25 l 0,-9.39375" /><path
     inkscape:connector-curvature="0"
     id="path74"
     style="fill:#000000;fill-opacity:1;fill-rule:nonzero;stroke:none"
     d="M 64.575,6.88875 C 64.575,6.5275 64.56,6.43875 64.4875,6.2925 64.32625,5.985 63.53,5.34 63.2275,5.32125 L 62.27,5.2675 c -0.0725,0 -0.0925,-0.18125 -0.0925,-0.3275 0,-0.0875 0,-0.23375 0.0925,-0.23375 0.5575,0 0.99125,-0.035 1.44125,-0.035 0.83,0 2.14875,0.07375 2.47,0.1075 L 71.65,11.38 c 0.83,1.01125 1.64625,1.95375 2.94,3.2525 l 0.0725,0 0,-7.94 c 0,-1.19125 -0.43375,-1.37125 -1.01,-1.39125 L 72.87625,5.2675 c -0.07375,0 -0.1075,-0.18125 -0.1075,-0.3075 0,-0.1075 0.05375,-0.28875 0.16125,-0.28875 0.395,0 1.3375,0.08875 2.22125,0.08875 0.81125,0 1.68,-0.08875 2.1825,-0.08875 0.0925,0 0.1075,0.07375 0.1075,0.14625 l 0,0.3425 c 0,0.0875 -0.03375,0.1075 -0.16125,0.1075 l -0.46875,0 c -1.245,0 -1.245,0.63 -1.245,2.1625 l 0,10.45 -0.435,0 L 65.39,6.74625 l 0,8.28125 c 0,1.55375 0.215,1.72875 1.76875,1.7825 0.0675,0 0.12625,0.16625 0.12625,0.3075 0,0.14625 -0.02,0.29375 -0.0725,0.29375 -0.3425,0 -1.495,-0.09375 -2.25625,-0.09375 -0.88375,0 -1.28,0.09375 -2.11,0.09375 -0.1075,0 -0.12625,-0.1275 -0.12625,-0.36625 0,-0.16125 0.01875,-0.235 0.23375,-0.235 0.7575,0 1.62125,-0.175 1.62125,-1.09875 l 0,-8.8225" /><path
     inkscape:connector-curvature="0"
     id="path76"
     style="fill:#000000;fill-opacity:1;fill-rule:nonzero;stroke:none"
     d="m 82.1725,14.07125 c 0,2.63125 0.05875,2.65125 1.82625,2.73875 l 0.0925,0.1325 0,0.34125 c 0,0.1075 -0.2725,0.1275 -0.43375,0.1275 -0.25375,0 -1.465,-0.09375 -2.2025,-0.09375 -0.86875,0 -1.7525,0.09375 -2.685,0.09375 -0.07375,-0.04 -0.09375,-0.1475 -0.09375,-0.3275 0.02,-0.235 0.05375,-0.27375 0.57625,-0.27375 1.245,0 1.29875,-0.26875 1.29875,-1.64 l 0,-8.62375 c 0,-1.025 -0.3075,-1.27875 -1.82125,-1.27875 L 78.67625,5.175 78.6425,4.88625 c 0.015,-0.195 0.18125,-0.215 0.28875,-0.215 0.4825,0 1.06375,0.08875 2.29,0.08875 0.9025,0 1.98625,-0.08875 2.705,-0.08875 l 0.0925,0.1275 0,0.3225 -0.07375,0.11125 -0.4875,0.035 c -0.7225,0.05375 -1.285,0.12625 -1.285,0.95625 l 0,7.8475" /><path
     inkscape:connector-curvature="0"
     id="path78"
     style="fill:#000000;fill-opacity:1;fill-rule:nonzero;stroke:none"
     d="m 86.50875,5.8775 c -0.2,-0.48375 -0.9175,-0.61 -1.42625,-0.61 L 84.975,5.175 l 0,-0.46875 0.20125,-0.035 c 0.75625,0 1.855,0.08875 2.255,0.08875 0.825,0 1.64125,-0.08875 2.46625,-0.08875 L 89.95625,4.725 89.8975,5.2325 89.0525,5.30125 c -0.2875,0.02 -0.61,0.1275 -0.61,0.39625 0,0.14625 0.0875,0.38 0.16125,0.54125 l 2.07,5.415 L 91.85,14.34 c 0.1275,0.2725 0.1425,0.32625 0.20125,0.32625 0.03375,0 0.0875,-0.0725 0.16125,-0.2875 L 94.79,7.5375 c 0.2875,-0.77625 0.5025,-1.44 0.48875,-1.66 -0.02,-0.3025 -0.1075,-0.46875 -0.63,-0.5175 l -0.9425,-0.0925 -0.1075,-0.05375 0,-0.56125 c 0.7075,0 1.40625,0.1075 2.11375,0.1075 0.5575,0 1.74875,-0.1075 1.875,-0.1075 l 0.1425,0.0725 0,0.415 -0.16125,0.1275 -0.5625,0.03375 c -0.35625,0.02 -0.5025,0.2 -0.75125,0.83 -1.71875,4.13125 -2.13375,5.435 -3.50125,8.91125 l -0.9225,2.34875 C 91.74375,17.645 91.70375,17.66 91.5825,17.66 c -0.16625,0 -0.20125,-0.05375 -0.235,-0.1275 L 86.50875,5.8775" /><path
     inkscape:connector-curvature="0"
     id="path80"
     style="fill:#000000;fill-opacity:1;fill-rule:nonzero;stroke:none"
     d="m 100.625,6.5125 c 0,-1.1725 -0.88375,-1.29875 -1.93375,-1.29875 -0.06875,0 -0.06875,-0.0925 -0.06875,-0.16625 l 0,-0.195 c 0,-0.16125 0.30375,-0.18125 0.9375,-0.18125 0.72375,0 1.53375,0.08875 2.29,0.08875 0.71875,0 1.44625,-0.08875 2.16875,-0.08875 l 3.80375,0 c 0.14125,0 0.16125,0.16125 0.16125,0.35625 l 0,2.2025 c 0,0.07375 -0.035,0.14625 -0.1275,0.14625 -0.14125,0 -0.43,0.02 -0.44875,-0.2 L 107.35375,6.62 C 107.24125,5.4675 106.45,5.2675 105.44,5.2675 l -1.85625,0 c -1.015,0 -1.3375,0.215 -1.3375,1.58625 l 0,3.2625 c 0,0.05875 0.1125,0.14625 0.14625,0.14625 l 2.12875,-0.07375 c 1.07875,-0.03375 1.39125,-0.375 1.66,-1.3325 0.035,-0.1075 0.0937,-0.14625 0.28875,-0.14625 0.12625,0 0.22,0.01875 0.22,0.1125 0,0.375 -0.1125,1.205 -0.1125,1.80625 0,0.96625 0.1125,1.49375 0.1125,1.80125 0,0.1075 -0.18125,0.215 -0.29375,0.215 -0.14125,0 -0.26875,-0.05375 -0.3075,-0.23375 -0.0875,-0.48375 -0.0875,-0.835 -0.17625,-1.08 -0.0925,-0.2725 -0.3125,-0.4 -0.84875,-0.415 L 102.5,10.8575 c -0.25375,0 -0.25375,0.09375 -0.25375,0.22 l 0,4.2925 c 0,1.29875 0.95625,1.3325 2.2025,1.3325 l 0.97625,0 c 0.9525,0 1.62125,-0.01375 2.075,-0.2825 0.395,-0.24 0.9525,-1.33875 1.1525,-1.7875 0.23375,0 0.54125,0.05375 0.54125,0.17625 0,0.0575 -0.0537,0.2 -0.0925,0.2875 l -0.5025,1.82625 c -0.14625,0.48875 -0.235,0.48875 -0.46875,0.48875 -1.94875,0 -3.8625,-0.09375 -6.475,-0.09375 -0.6,0 -2.11375,0.09375 -3.0325,0.09375 -0.0575,0 -0.11125,-0.18625 -0.11125,-0.29375 0,-0.14125 0.03875,-0.3075 0.11125,-0.3075 1.5725,-0.06875 2.0025,-0.22875 2.0025,-1.89 l 0,-8.4075" /><path
     inkscape:connector-curvature="0"
     id="path82"
     style="fill:#000000;fill-opacity:1;fill-rule:nonzero;stroke:none"
     d="m 114.145,10.4625 c 0.235,0.02 0.45,0.03375 0.68375,0.03375 1.44625,0 3.2475,-0.5025 3.2475,-2.63125 0,-1.5925 -1.08375,-2.6175 -2.67125,-2.6175 -1.225,0 -1.26,0.28875 -1.26,0.83 l 0,4.385 z M 112.52,6.62 c 0,-0.90375 -0.04,-1.3525 -1.1725,-1.3525 l -0.7425,0 c -0.1075,0 -0.12125,-0.2 -0.12125,-0.3425 0,-0.0925 0.0537,-0.25375 0.12125,-0.25375 1.045,0 2.115,0.05375 3.16,0.05375 0.83,0 1.64,-0.05375 2.47,-0.05375 1.84125,0 3.6475,1.22625 3.6475,3.12 0,1.64125 -1.49875,2.745 -2.905,2.96 l 0,0.03875 c 0.70375,0.16125 1.44,1.47875 1.62625,1.7675 l 1.9825,3.0325 c 0.63,0.95125 1.045,1.1325 2.12875,1.18625 l 0.1075,0.1075 0,0.34125 c 0,0.16625 -0.1275,0.18625 -0.2,0.18625 -0.37625,0 -0.9375,-0.05875 -1.20625,-0.05875 -0.435,0 -0.865,0.05875 -1.29875,0.05875 -0.415,0 -1.23125,-1.21125 -2.29,-3.10625 -1.1725,-2.075 -1.86125,-3.2125 -3.0525,-3.2125 -0.14625,0 -0.36125,0 -0.63,0.03375 l 0,4.42375 c 0,0.65 0,1.26 0.89875,1.26 0.68875,0 0.99625,0 0.99625,0.14625 0,0.3425 -0.0588,0.455 -0.3275,0.455 -0.9375,0 -1.71375,-0.09375 -2.49,-0.09375 -0.3075,0 -2.31,0.09375 -2.55875,0.09375 -0.1125,0 -0.14625,-0.235 -0.14625,-0.38125 0,-0.16125 0.0738,-0.2 0.435,-0.22 1.245,-0.05375 1.5675,-0.22875 1.5675,-1.47875 l 0,-8.71125" /><path
     inkscape:connector-curvature="0"
     id="path84"
     style="fill:#000000;fill-opacity:1;fill-rule:nonzero;stroke:none"
     d="m 125.67875,10.83875 c -1.29875,-0.77125 -1.82125,-1.495 -1.82125,-2.9 0,-2.25625 1.84125,-3.52125 4.2775,-3.52125 0.68375,0 1.66,0.235 2.27,0.5075 l 0.1275,2.25125 0,0.0925 c 0,0.08875 -0.18125,0.1275 -0.435,0.1275 -0.23375,0 -0.26875,-0.1075 -0.2875,-0.28875 -0.1275,-1.21 -0.99125,-1.98625 -2.27625,-1.98625 -1.225,0 -2.1775,0.86375 -2.1775,2.02125 0,1.29875 0.79125,1.80625 2.5925,2.76375 1.7875,0.9325 3.34,1.7625 3.34,4.01875 0,2.455 -2.21625,3.735 -4.4725,3.735 -0.7425,0 -1.9675,-0.235 -2.65125,-0.5225 -0.14625,-0.07375 -0.2,-0.3075 -0.25375,-0.70375 l -0.215,-1.69375 c 0,-0.1075 0.36125,-0.1075 0.46875,-0.1075 0.0537,0 0.1075,0.03375 0.14125,0.15625 0.415,1.3775 1.3525,2.1675 2.79875,2.1675 1.26375,0 2.47,-1.09875 2.47,-2.32375 0,-1.17625 -0.66875,-1.88 -1.60625,-2.43625 l -2.29,-1.3575" /><path
     inkscape:connector-curvature="0"
     id="path86"
     style="fill:#000000;fill-opacity:1;fill-rule:nonzero;stroke:none"
     d="m 136.3275,14.07125 c 0,2.63125 0.0538,2.65125 1.8225,2.73875 l 0.0925,0.1325 0,0.34125 c 0,0.1075 -0.26875,0.1275 -0.435,0.1275 -0.24875,0 -1.46,-0.09375 -2.2025,-0.09375 -0.86375,0 -1.7475,0.09375 -2.685,0.09375 -0.0737,-0.04 -0.0925,-0.1475 -0.0925,-0.3275 0.0188,-0.235 0.0538,-0.27375 0.57625,-0.27375 1.25,0 1.30375,-0.26875 1.30375,-1.64 l 0,-8.62375 c 0,-1.025 -0.3075,-1.27875 -1.82625,-1.27875 l -0.0538,-0.0925 -0.035,-0.28875 c 0.02,-0.195 0.18125,-0.215 0.28875,-0.215 0.4875,0 1.06375,0.08875 2.29,0.08875 0.90375,0 1.9875,-0.08875 2.71,-0.08875 l 0.0875,0.1275 0,0.3225 -0.0687,0.11125 -0.4925,0.035 c -0.7175,0.05375 -1.28,0.12625 -1.28,0.95625 l 0,7.8475" /><path
     inkscape:connector-curvature="0"
     id="path88"
     style="fill:#000000;fill-opacity:1;fill-rule:nonzero;stroke:none"
     d="m 145.9125,15.4775 c 0,1.3325 0.89875,1.3325 2.0225,1.3325 l 0.1075,0.0925 0,0.28875 c 0,0.22 -0.0937,0.22 -0.38125,0.22 -0.36125,0 -1.245,-0.09375 -2.51,-0.09375 -0.99125,0 -2.53875,0.09375 -2.97375,0.09375 -0.0388,-0.1275 -0.0725,-0.22 -0.0725,-0.3275 0,-0.05375 0.0188,-0.16125 0.0725,-0.2 l 0.18125,-0.07375 0.215,0 c 1.64,0 1.71375,-0.55625 1.71375,-2.05 l 0,-8.555 -0.0538,-0.83 -2.4175,0 c -1.3725,0 -1.58625,0.86375 -1.92875,2.02125 -0.0387,0.1075 -0.1125,0.16125 -0.22,0.16125 -0.24875,0 -0.415,-0.07375 -0.415,-0.18125 0,-0.3075 0.22,-1.9825 0.22,-3.4075 0,-0.07375 0.24875,-0.07375 0.5025,-0.07375 0.57625,0.77625 0.7575,0.77625 1.53375,0.77625 l 6.71375,0 c 1.265,0 1.62125,-0.38 2.075,-0.9375 0.1225,0 0.5375,0 0.5375,0.16125 0,0.14625 -0.35625,1.62625 -0.395,2.925 0,0.195 -0.0538,0.57625 -0.1425,0.57625 -0.16625,0 -0.58125,-0.0925 -0.58125,-0.18625 l -0.0675,-0.8975 C 149.575,5.39375 149.14,5.375 148.40375,5.375 l -2.49125,0 0,10.1025" /><path
     inkscape:connector-curvature="0"
     id="path90"
     style="fill:#000000;fill-opacity:1;fill-rule:nonzero;stroke:none"
     d="m 157.02125,11.67375 c 0,-0.18625 -0.0188,-0.42 -0.215,-0.71375 L 152.735,5.4575 C 152.6275,5.29625 152.46125,5.20375 152.04125,5.18375 L 151.3525,5.15 151.245,5.09625 l 0,-0.47375 0.1075,-0.05375 0.22,0 c 0.3075,0 2.25125,0.0875 2.5975,0.0875 0.45375,0 1.18125,-0.0875 1.7825,-0.0875 0.395,0 0.58125,0 0.58125,0.1075 l 0,0.22 c 0,0.18 -0.0588,0.26875 -0.1125,0.26875 l -1.05,0.03875 c -0.25875,0 -0.42,0.1075 -0.42,0.3075 0,0.07375 0.1075,0.25875 0.2925,0.48875 l 2.59375,3.6175 c 0.14625,0.2 0.3125,0.38125 0.4925,0.5475 0.34625,-0.3275 1.94375,-2.53 2.725,-3.6725 0.2925,-0.415 0.45375,-0.76125 0.45375,-0.9075 0,-0.25375 -0.14125,-0.36125 -0.66875,-0.38125 L 159.92625,5.165 c 0.02,0 0,-0.26875 0,-0.3425 0,-0.0925 0.02,-0.2 0.1125,-0.25375 0.70875,0.07375 1.5775,0.0875 2.35875,0.0875 0.5325,0 1.3275,-0.0875 1.5625,-0.0875 l 0.1125,0.07375 0,0.415 -0.0737,0.0725 -0.67375,0.035 c -0.58125,0.03875 -1.30875,1.27375 -1.65,1.7475 l -3.0175,4.12125 0,4.2725 c 0,0.38125 0.0188,0.7075 0.0538,0.815 0.14625,0.435 0.62,0.67375 1.29375,0.67375 l 0.48875,0 0.16,0.07375 0,0.5075 -0.0875,0.02 -0.27375,0 c -0.8,0 -1.58125,-0.0925 -2.3825,-0.0925 -0.815,0 -1.65,0.0925 -2.46625,0.0925 l -0.25875,0 -0.14625,-0.03875 0,-0.3075 c 0,-0.1075 0.0387,-0.24 0.18625,-0.255 l 0.84875,-0.0925 c 0.5275,-0.05375 0.9475,-0.23375 0.9475,-1.1425 l 0,-3.88625" /></svg>