<?xml version="1.0" encoding="UTF-8" standalone="no"?>
<svg
   xmlns:svg="http://www.w3.org/2000/svg"
   xmlns="http://www.w3.org/2000/svg"
   xmlns:sodipodi="http://sodipodi.sourceforge.net/DTD/sodipodi-0.dtd"
   xmlns:inkscape="http://www.inkscape.org/namespaces/inkscape"
   viewBox="0 0 421.75 34.891998"
   height="34.891998"
   width="421.75"
   xml:space="preserve"
   version="1.1"
   id="svg2"
   inkscape:version="0.91 r13725"
   sodipodi:docname="logoUvA_nl_xl.svg"><sodipodi:namedview
     pagecolor="#ffffff"
     bordercolor="#666666"
     borderopacity="1"
     objecttolerance="10"
     gridtolerance="10"
     guidetolerance="10"
     inkscape:pageopacity="0"
     inkscape:pageshadow="2"
     inkscape:window-width="1920"
     inkscape:window-height="1016"
     id="namedview51"
     showgrid="false"
     inkscape:zoom="11.608773"
     inkscape:cx="87.810375"
     inkscape:cy="24.648726"
     inkscape:window-x="0"
     inkscape:window-y="27"
     inkscape:window-maximized="1"
     inkscape:current-layer="svg2" /><defs
     id="defs6"><clipPath
       id="clipPath18"
       clipPathUnits="userSpaceOnUse"><path
         id="path20"
         d="m 44.801,27.914 282.066,0 0,-27.914 -282.066,0 0,27.914 z" /></clipPath><clipPath
       id="clipPath28"
       clipPathUnits="userSpaceOnUse"><path
         id="path30"
         d="M 20,0 327,0 327,28 20,28 20,0 Z" /></clipPath><clipPath
       id="clipPath38"
       clipPathUnits="userSpaceOnUse"><path
         id="path40"
         d="m 43.469,28 283,0 0,-27.914 -283,0 0,27.914 z" /></clipPath><clipPath
       id="clipPath48"
       clipPathUnits="userSpaceOnUse"><path
         id="path50"
         d="M 43,0 326,0 326,28 43,28 43,0 Z" /></clipPath></defs><path
     id="path54"
     style="fill:#000000;fill-opacity:1;fill-rule:nonzero;stroke:none"
     d="m 54.33625,-0.108001 34.8875,0 0,34.8925 -34.8875,0 0,-34.8925 z"
     inkscape:connector-curvature="0" /><path
     id="path56"
     style="fill:#ffffff;fill-opacity:1;fill-rule:nonzero;stroke:none"
     d="m 63.6275,10.414499 c 0,0 0.85,0.03875 1.43125,0.03875 0.7125,0.005 1.3275,-0.15625 1.3425,-0.06375 0.03,0.17625 0.04875,7.80875 0.04875,7.80875 0,0 0.08375,1.63 0.48375,2.46 0.7025,1.455 3.8275,1.5775 3.8275,1.5775 0,0 0.48875,0.05875 1.5775,-0.025 1.08375,-0.0875 3.20375,-0.4 3.88625,-1.68375 0,0 0.48875,-0.5475 0.665,-3.62875 0.18,-3.23625 -0.25,-6.435 -0.25,-6.435 l 3.0325,-0.14125 c 0,0 -0.205,2.285 -0.215,6.57625 0,4.2875 0.39625,6.8075 0.39625,6.8075 l -3.00375,0.88375 0.005,-3.17875 -1.43,1.3425 c 0,0 -0.835,0.86 -2.72,1.3425 -1.885,0.48375 -3.32,0.39625 -4.175,0.225 -0.85875,-0.17625 -1.63,-0.405 -2.11375,-0.635 -0.48875,-0.22875 -1.3425,-0.65375 -2.115,-1.86 -0.45875,-0.70875 -0.45875,-2.485 -0.45875,-2.485 l 0.03875,-3.32125 -0.25375,-5.605"
     inkscape:connector-curvature="0" /><path
     style="fill:#ffffff;fill-opacity:1;fill-rule:nonzero;stroke:none"
     d="M 69.150391 1.2011719 L 67.695312 2.65625 L 70.246094 5.2128906 L 67.519531 7.9335938 L 68.974609 9.3945312 L 71.703125 6.671875 L 74.400391 9.375 L 75.855469 7.9199219 L 73.160156 5.21875 L 75.693359 2.6894531 L 74.238281 1.2304688 L 71.703125 3.7597656 L 69.150391 1.2011719 z "
     id="path58" /><path
     style="fill:#ffffff;fill-opacity:1;fill-rule:nonzero;stroke:none"
     d="M 69.160156 11.361328 L 67.705078 12.816406 L 70.255859 15.373047 L 67.529297 18.089844 L 68.984375 19.550781 L 71.710938 16.830078 L 74.408203 19.535156 L 75.863281 18.080078 L 73.166016 15.376953 L 75.703125 12.845703 L 74.248047 11.390625 L 71.712891 13.919922 L 69.160156 11.361328 z "
     id="path62" /><path
     style="fill:#ffffff;fill-opacity:1;fill-rule:nonzero;stroke:none"
     d="M 69.144531 24.917969 L 67.689453 26.367188 L 70.244141 28.927734 L 67.515625 31.650391 L 68.970703 33.105469 L 71.697266 30.382812 L 74.394531 33.085938 L 75.849609 31.636719 L 73.150391 28.931641 L 75.683594 26.400391 L 74.234375 24.945312 L 71.697266 27.476562 L 69.144531 24.917969 z "
     id="path66" /><path
     id="path70"
     style="fill:#000000;fill-opacity:1;fill-rule:nonzero;stroke:none"
     d="m 101.09375,10.736999 c 0,-1.905 -1.1575,-1.905 -2.485,-1.905 l -0.1225,-0.0975 0,-0.41 c 0,-0.26875 0.17125,-0.2925 0.435,-0.2925 0.625,0 2.1725,0.12125 3.305,0.12125 1.20625,0 2.43625,-0.12125 3.6425,-0.12125 l 0.0737,0.0725 0,0.63 -0.1175,0.0975 -0.2875,0 c -1.5725,0 -2.27125,0.16625 -2.27125,1.9775 l 0,6.9975 c 0,3.47625 0.67375,6.20125 4.825,6.20125 4.32125,0 5.7225,-2.075 5.7225,-6.1525 l 0,-6.27375 c 0,-2.75 0,-2.55875 -2.12375,-2.75 l -0.0987,-0.195 0,-0.45875 0.0738,-0.14625 c 0.435,0 0.9125,0.12125 2.725,0.12125 1.015,0 2.295,-0.12125 3.06625,-0.12125 l 0.0975,0.14625 0,0.5075 -0.14625,0.14625 c -1.7625,0 -2.3875,0.09375 -2.3875,1.29875 l 0,8.61875 c 0,4.41375 -2.58375,6.66 -6.9725,6.66 -3.50125,0 -6.95375,-1.23 -6.95375,-5.25875 l 0,-9.41375"
     inkscape:connector-curvature="0" /><path
     id="path72"
     style="fill:#000000;fill-opacity:1;fill-rule:nonzero;stroke:none"
     d="m 118.93125,14.501999 c 0,-0.36625 -0.02,-0.455 -0.0937,-0.60125 -0.16125,-0.3075 -0.95625,-0.9575 -1.26375,-0.97625 l -0.9575,-0.05375 c -0.0737,0 -0.0875,-0.18125 -0.0875,-0.3225 0,-0.0925 0,-0.23875 0.0875,-0.23875 0.56125,0 0.99125,-0.035 1.445,-0.035 0.835,0 2.15375,0.07375 2.48125,0.1075 l 5.4775,6.62125 c 0.83,1.01125 1.64625,1.95375 2.95,3.2525 l 0.0675,0 0,-7.955 c 0,-1.19125 -0.43375,-1.37625 -1.01,-1.39125 l -0.77625,-0.03875 c -0.0738,0 -0.1125,-0.18125 -0.1125,-0.3025 0,-0.1125 0.0537,-0.29375 0.16125,-0.29375 0.4,0 1.3425,0.0925 2.22625,0.0925 0.815,0 1.685,-0.0925 2.1875,-0.0925 0.0925,0 0.1125,0.07375 0.1125,0.14625 l 0,0.3425 c 0,0.0875 -0.0387,0.1075 -0.16625,0.1075 l -0.46875,0 c -1.25,0 -1.25,0.635 -1.25,2.1725 l 0,10.46875 -0.435,0 -9.76,-11.1575 0,8.30125 c 0,1.5525 0.215,1.73375 1.7725,1.7925 0.0688,0 0.12625,0.16 0.12625,0.3025 0,0.14625 -0.0187,0.2925 -0.0725,0.2925 -0.3475,0 -1.50375,-0.0925 -2.26125,-0.0925 -0.88875,0 -1.28375,0.0925 -2.11875,0.0925 -0.1075,0 -0.1275,-0.12625 -0.1275,-0.36125 0,-0.16625 0.02,-0.23375 0.24,-0.23375 0.75625,0 1.62625,-0.18125 1.62625,-1.10375 l 0,-8.8425"
     inkscape:connector-curvature="0" /><path
     id="path74"
     style="fill:#000000;fill-opacity:1;fill-rule:nonzero;stroke:none"
     d="m 136.5675,21.698249 c 0,2.6375 0.0588,2.65625 1.82625,2.75 l 0.0925,0.12125 0,0.3475 c 0,0.10625 -0.27375,0.12625 -0.435,0.12625 -0.25375,0 -1.46375,-0.0925 -2.20625,-0.0925 -0.87,0 -1.75375,0.0925 -2.695,0.0925 -0.0738,-0.03875 -0.0888,-0.14625 -0.0888,-0.3275 0.015,-0.23375 0.0538,-0.2675 0.57625,-0.2675 1.25,0 1.30375,-0.27375 1.30375,-1.64625 l 0,-8.6475 c 0,-1.03 -0.3075,-1.28375 -1.82625,-1.28375 l -0.0538,-0.08875 -0.0337,-0.2875 c 0.015,-0.2 0.175,-0.22 0.2875,-0.22 0.48875,0 1.065,0.0925 2.295,0.0925 0.90375,0 1.9875,-0.0925 2.71,-0.0925 l 0.0925,0.1275 0,0.3275 -0.0725,0.10625 -0.48875,0.035 c -0.7225,0.05375 -1.28375,0.12625 -1.28375,0.96125 l 0,7.86625"
     inkscape:connector-curvature="0" /><path
     id="path76"
     style="fill:#000000;fill-opacity:1;fill-rule:nonzero;stroke:none"
     d="m 140.9125,13.485749 c -0.2,-0.48875 -0.9225,-0.615 -1.43,-0.615 l -0.1075,-0.08875 0,-0.4725 0.2,-0.035 c 0.7575,0 1.86,0.0925 2.25625,0.0925 0.835,0 1.645,-0.0925 2.48,-0.0925 l 0.0538,0.05375 -0.0538,0.5075 -0.84875,0.07375 c -0.29375,0.015 -0.61625,0.1275 -0.61625,0.395 0,0.1475 0.0888,0.38125 0.16125,0.5425 l 2.08,5.43 1.1775,2.69 c 0.12625,0.27375 0.14125,0.3275 0.195,0.3275 0.0387,0 0.0925,-0.07375 0.16625,-0.28875 l 2.5825,-6.855 c 0.29375,-0.77625 0.5075,-1.445 0.48875,-1.665 -0.015,-0.3075 -0.1075,-0.46875 -0.63,-0.5225 l -0.9425,-0.0925 -0.1075,-0.05375 0,-0.56125 c 0.7075,0 1.41125,0.11125 2.11375,0.11125 0.5625,0 1.75375,-0.11125 1.885,-0.11125 l 0.1425,0.0725 0,0.415 -0.16125,0.1275 -0.5625,0.03875 c -0.36125,0.015 -0.5075,0.2 -0.76125,0.83 -1.71375,4.14125 -2.13375,5.445 -3.50625,8.93625 l -0.9225,2.3475 c -0.0875,0.255 -0.12625,0.27375 -0.25375,0.27375 -0.16125,0 -0.2,-0.05375 -0.235,-0.13125 l -4.84375,-11.68"
     inkscape:connector-curvature="0" /><path
     id="path78"
     style="fill:#000000;fill-opacity:1;fill-rule:nonzero;stroke:none"
     d="m 155.05875,14.120749 c 0,-1.1775 -0.88875,-1.30375 -1.93375,-1.30375 -0.0737,0 -0.0737,-0.0875 -0.0737,-0.16125 l 0,-0.2 c 0,-0.16125 0.30875,-0.18125 0.9375,-0.18125 0.72375,0 1.53875,0.0925 2.3,0.0925 0.7225,0 1.44625,-0.0925 2.16875,-0.0925 l 3.8125,0 c 0.1475,0 0.16625,0.16125 0.16625,0.36125 l 0,2.2075 c 0,0.07375 -0.0387,0.14625 -0.12625,0.14625 -0.1475,0 -0.435,0.015 -0.455,-0.2 l -0.0537,-0.56125 c -0.1075,-1.1575 -0.9025,-1.3575 -1.91375,-1.3575 l -1.865,0 c -1.01125,0 -1.3375,0.22 -1.3375,1.59125 l 0,3.27125 c 0,0.05875 0.1075,0.1475 0.14625,0.1475 l 2.13375,-0.07375 c 1.08375,-0.03375 1.39125,-0.37625 1.66,-1.3375 0.0387,-0.1075 0.0925,-0.1425 0.2925,-0.1425 0.1225,0 0.215,0.015 0.215,0.1075 0,0.38125 -0.1075,1.21125 -0.1075,1.8075 0,0.97625 0.1075,1.50375 0.1075,1.81125 0,0.1075 -0.18,0.215 -0.2875,0.215 -0.14625,0 -0.27375,-0.05375 -0.3075,-0.235 -0.0888,-0.4875 -0.0888,-0.83 -0.18125,-1.08375 -0.0925,-0.27375 -0.3075,-0.4 -0.85,-0.42 l -2.5675,-0.05375 c -0.25375,0 -0.25375,0.0925 -0.25375,0.22 l 0,4.30125 c 0,1.30375 0.95625,1.33875 2.20625,1.33875 l 0.9775,0 c 0.95625,0 1.625,-0.02 2.08,-0.28875 0.395,-0.23375 0.95625,-1.3375 1.15625,-1.79125 0.235,0 0.5425,0.05375 0.5425,0.18 0,0.05875 -0.0538,0.2 -0.0875,0.29375 l -0.50875,1.825 c -0.14625,0.48875 -0.23875,0.48875 -0.47375,0.48875 -1.9525,0 -3.86625,-0.0925 -6.48875,-0.0925 -0.595,0 -2.11375,0.0925 -3.0375,0.0925 -0.0538,0 -0.11125,-0.18 -0.11125,-0.2925 0,-0.1425 0.0387,-0.3025 0.11125,-0.3025 1.5725,-0.07375 2.0075,-0.24 2.0075,-1.9 l 0,-8.4275"
     inkscape:connector-curvature="0" /><path
     id="path80"
     style="fill:#000000;fill-opacity:1;fill-rule:nonzero;stroke:none"
     d="m 168.60875,18.080749 c 0.23375,0.01875 0.45375,0.03375 0.68875,0.03375 1.445,0 3.25125,-0.5025 3.25125,-2.63625 0,-1.5925 -1.08375,-2.6275 -2.67625,-2.6275 -1.23,0 -1.26375,0.29375 -1.26375,0.835 l 0,4.395 z m -1.62625,-3.8525 c 0,-0.90375 -0.0387,-1.3575 -1.17625,-1.3575 l -0.7425,0 c -0.1075,0 -0.1275,-0.2 -0.1275,-0.3425 0,-0.0925 0.0538,-0.25375 0.1275,-0.25375 1.05,0 2.11375,0.05375 3.16375,0.05375 0.835,0 1.645,-0.05375 2.48,-0.05375 1.84125,0 3.6525,1.23125 3.6525,3.13 0,1.64625 -1.50375,2.74875 -2.91,2.96375 l 0,0.03875 c 0.70375,0.16125 1.445,1.48 1.62625,1.76875 l 1.9875,3.04125 c 0.635,0.9575 1.05,1.1375 2.13375,1.19125 l 0.1075,0.1075 0,0.3475 c 0,0.16 -0.1275,0.18 -0.2,0.18 -0.37625,0 -0.9375,-0.05375 -1.21125,-0.05375 -0.43,0 -0.86875,0.05375 -1.29875,0.05375 -0.415,0 -1.23125,-1.21625 -2.3,-3.11 -1.1725,-2.08 -1.86,-3.2225 -3.05125,-3.2225 -0.1475,0 -0.3625,0 -0.635,0.03875 l 0,4.42875 c 0,0.64875 0,1.27 0.9025,1.27 0.68875,0 0.99625,0 0.99625,0.14125 0,0.34125 -0.0537,0.45375 -0.32625,0.45375 -0.9375,0 -1.71875,-0.0925 -2.49625,-0.0925 -0.3075,0 -2.31375,0.0925 -2.5675,0.0925 -0.1075,0 -0.1425,-0.23375 -0.1425,-0.38125 0,-0.16 0.0687,-0.2 0.43,-0.21375 1.25,-0.05875 1.5775,-0.24 1.5775,-1.485 l 0,-8.735"
     inkscape:connector-curvature="0" /><path
     id="path82"
     style="fill:#000000;fill-opacity:1;fill-rule:nonzero;stroke:none"
     d="m 180.16625,18.460749 c -1.29875,-0.78125 -1.82125,-1.50375 -1.82125,-2.91 0,-2.26 1.845,-3.53 4.2825,-3.53 0.6875,0 1.665,0.235 2.28,0.5075 l 0.12625,2.26125 0,0.0875 c 0,0.0925 -0.18,0.1275 -0.43375,0.1275 -0.235,0 -0.27375,-0.1075 -0.28875,-0.28875 -0.12625,-1.21 -0.99625,-1.98625 -2.28,-1.98625 -1.23,0 -2.1875,0.86375 -2.1875,2.02625 0,1.29875 0.79625,1.80625 2.6025,2.76375 1.7925,0.94125 3.345,1.7725 3.345,4.0325 0,2.46125 -2.2225,3.745 -4.4825,3.745 -0.7425,0 -1.9725,-0.23875 -2.66125,-0.5275 -0.14125,-0.0725 -0.195,-0.3075 -0.24875,-0.7025 l -0.22,-1.70375 c 0,-0.1075 0.36125,-0.1075 0.46875,-0.1075 0.0588,0 0.1125,0.03875 0.14625,0.165 0.415,1.3725 1.3575,2.16875 2.8025,2.16875 1.265,0 2.47625,-1.10375 2.47625,-2.33375 0,-1.1725 -0.66375,-1.88 -1.60625,-2.44125 l -2.3,-1.35375"
     inkscape:connector-curvature="0" /><path
     id="path84"
     style="fill:#000000;fill-opacity:1;fill-rule:nonzero;stroke:none"
     d="m 190.84,21.698249 c 0,2.6375 0.0588,2.65625 1.83125,2.75 l 0.0875,0.12125 0,0.3475 c 0,0.10625 -0.27375,0.12625 -0.435,0.12625 -0.25375,0 -1.46375,-0.0925 -2.20625,-0.0925 -0.865,0 -1.75375,0.0925 -2.69125,0.0925 -0.0725,-0.03875 -0.0925,-0.14625 -0.0925,-0.3275 0.02,-0.23375 0.0537,-0.2675 0.58125,-0.2675 1.245,0 1.29875,-0.27375 1.29875,-1.64625 l 0,-8.6475 c 0,-1.03 -0.3075,-1.28375 -1.82625,-1.28375 l -0.0537,-0.08875 -0.0337,-0.2875 c 0.015,-0.2 0.18,-0.22 0.2875,-0.22 0.48875,0 1.065,0.0925 2.295,0.0925 0.90875,0 1.9925,-0.0925 2.715,-0.0925 l 0.0875,0.1275 0,0.3275 -0.0725,0.10625 -0.48875,0.035 c -0.7225,0.05375 -1.28375,0.12625 -1.28375,0.96125 l 0,7.86625"
     inkscape:connector-curvature="0" /><path
     id="path86"
     style="fill:#000000;fill-opacity:1;fill-rule:nonzero;stroke:none"
     d="m 200.44875,23.104499 c 0,1.34375 0.90375,1.34375 2.0225,1.34375 l 0.11125,0.0875 0,0.2875 c 0,0.22 -0.0925,0.22 -0.38,0.22 -0.36125,0 -1.25,-0.0925 -2.515,-0.0925 -0.99625,0 -2.54875,0.0925 -2.98375,0.0925 -0.0338,-0.12625 -0.0725,-0.22 -0.0725,-0.3275 0,-0.05375 0.0188,-0.16125 0.0725,-0.2 l 0.18125,-0.0675 0.215,0 c 1.645,0 1.71875,-0.5625 1.71875,-2.06625 l 0,-8.56875 -0.0538,-0.835 -2.4225,0 c -1.37625,0 -1.59125,0.86875 -1.93375,2.02625 -0.0387,0.1125 -0.1075,0.16625 -0.21875,0.16625 -0.25,0 -0.415,-0.07375 -0.415,-0.18125 0,-0.3075 0.21375,-1.9925 0.21375,-3.4175 0,-0.07375 0.255,-0.07375 0.50875,-0.07375 0.58,0.77625 0.76125,0.77625 1.5375,0.77625 l 6.72875,0 c 1.265,0 1.62625,-0.38 2.075,-0.9375 0.1275,0 0.5475,0 0.5475,0.16125 0,0.14625 -0.36125,1.62625 -0.40125,2.93 0,0.195 -0.0538,0.57625 -0.14625,0.57625 -0.16125,0 -0.57625,-0.0875 -0.57625,-0.18125 l -0.0725,-0.9025 c -0.0737,-0.92375 -0.50375,-0.9425 -1.24625,-0.9425 l -2.495,0 0,10.12625"
     inkscape:connector-curvature="0" /><path
     id="path88"
     style="fill:#000000;fill-opacity:1;fill-rule:nonzero;stroke:none"
     d="m 208.335,14.120749 c 0,-1.1775 -0.88375,-1.30375 -1.93375,-1.30375 -0.0738,0 -0.0738,-0.0875 -0.0738,-0.16125 l 0,-0.2 c 0,-0.16125 0.30875,-0.18125 0.9425,-0.18125 0.72375,0 1.53875,0.0925 2.295,0.0925 0.7275,0 1.45,-0.0925 2.17375,-0.0925 l 3.8125,0 c 0.1475,0 0.16625,0.16125 0.16625,0.36125 l 0,2.2075 c 0,0.07375 -0.0387,0.14625 -0.12625,0.14625 -0.1475,0 -0.435,0.015 -0.455,-0.2 l -0.0537,-0.56125 c -0.1075,-1.1575 -0.9025,-1.3575 -1.91875,-1.3575 l -1.86,0 c -1.01125,0 -1.3375,0.22 -1.3375,1.59125 l 0,3.27125 c 0,0.05875 0.1075,0.1475 0.14125,0.1475 l 2.13375,-0.07375 c 1.08875,-0.03375 1.39625,-0.37625 1.665,-1.3375 0.0387,-0.1075 0.0925,-0.1425 0.2875,-0.1425 0.1275,0 0.22,0.015 0.22,0.1075 0,0.38125 -0.1075,1.21125 -0.1075,1.8075 0,0.97625 0.1075,1.50375 0.1075,1.81125 0,0.1075 -0.18,0.215 -0.2875,0.215 -0.14625,0 -0.27375,-0.05375 -0.3075,-0.235 -0.0937,-0.4875 -0.0937,-0.83 -0.18125,-1.08375 -0.0925,-0.27375 -0.3075,-0.4 -0.85,-0.42 l -2.5675,-0.05375 c -0.25375,0 -0.25375,0.0925 -0.25375,0.22 l 0,4.30125 c 0,1.30375 0.95625,1.33875 2.20625,1.33875 l 0.9775,0 c 0.95625,0 1.625,-0.02 2.08,-0.28875 0.395,-0.23375 0.95625,-1.3375 1.15625,-1.79125 0.235,0 0.5425,0.05375 0.5425,0.18 0,0.05875 -0.0538,0.2 -0.0925,0.29375 l -0.50875,1.825 c -0.14125,0.48875 -0.23375,0.48875 -0.4675,0.48875 -1.95375,0 -3.8725,-0.0925 -6.495,-0.0925 -0.59,0 -2.11375,0.0925 -3.0375,0.0925 -0.0525,0 -0.10625,-0.18 -0.10625,-0.2925 0,-0.1425 0.0387,-0.3025 0.10625,-0.3025 1.5775,-0.07375 2.0075,-0.24 2.0075,-1.9 l 0,-8.4275"
     inkscape:connector-curvature="0" /><path
     id="path90"
     style="fill:#000000;fill-opacity:1;fill-rule:nonzero;stroke:none"
     d="m 222.01625,21.698249 c 0,2.6375 0.0537,2.65625 1.82625,2.75 l 0.0888,0.12125 0,0.3475 c 0,0.10625 -0.26875,0.12625 -0.435,0.12625 -0.25375,0 -1.465,-0.0925 -2.2025,-0.0925 -0.86875,0 -1.7575,0.0925 -2.695,0.0925 -0.0737,-0.03875 -0.0925,-0.14625 -0.0925,-0.3275 0.0188,-0.23375 0.0538,-0.2675 0.58125,-0.2675 1.245,0 1.29875,-0.27375 1.29875,-1.64625 l 0,-8.6475 c 0,-1.03 -0.30875,-1.28375 -1.82625,-1.28375 l -0.0538,-0.08875 -0.035,-0.2875 c 0.015,-0.2 0.18125,-0.22 0.28875,-0.22 0.4875,0 1.06875,0.0925 2.295,0.0925 0.9025,0 1.9925,-0.0925 2.715,-0.0925 l 0.0875,0.1275 0,0.3275 -0.0687,0.10625 -0.4875,0.035 c -0.7275,0.05375 -1.285,0.12625 -1.285,0.96125 l 0,7.86625"
     inkscape:connector-curvature="0" /><path
     id="path92"
     style="fill:#000000;fill-opacity:1;fill-rule:nonzero;stroke:none"
     d="m 231.61625,23.104499 c 0,1.34375 0.90875,1.34375 2.02625,1.34375 l 0.1075,0.0875 0,0.2875 c 0,0.22 -0.0875,0.22 -0.37625,0.22 -0.36625,0 -1.25,-0.0925 -2.51375,-0.0925 -0.99625,0 -2.55,0.0925 -2.98375,0.0925 -0.035,-0.12625 -0.0737,-0.22 -0.0737,-0.3275 0,-0.05375 0.02,-0.16125 0.0737,-0.2 l 0.18,-0.0675 0.215,0 c 1.65125,0 1.71875,-0.5625 1.71875,-2.06625 l 0,-8.56875 -0.0538,-0.835 -2.42125,0 c -1.3775,0 -1.5925,0.86875 -1.93375,2.02625 -0.0388,0.1125 -0.1125,0.16625 -0.22,0.16625 -0.24875,0 -0.415,-0.07375 -0.415,-0.18125 0,-0.3075 0.215,-1.9925 0.215,-3.4175 0,-0.07375 0.25375,-0.07375 0.5075,-0.07375 0.58125,0.77625 0.7625,0.77625 1.53875,0.77625 l 6.7275,0 c 1.265,0 1.62625,-0.38 2.08,-0.9375 0.1225,0 0.5425,0 0.5425,0.16125 0,0.14625 -0.36125,1.62625 -0.4,2.93 0,0.195 -0.0538,0.57625 -0.1425,0.57625 -0.165,0 -0.58,-0.0875 -0.58,-0.18125 l -0.0737,-0.9025 c -0.0688,-0.92375 -0.5075,-0.9425 -1.25,-0.9425 l -2.495,0 0,10.12625"
     inkscape:connector-curvature="0" /><path
     id="path94"
     style="fill:#000000;fill-opacity:1;fill-rule:nonzero;stroke:none"
     d="m 243.755,13.485749 c -0.195,-0.48875 -0.9175,-0.615 -1.42625,-0.615 l -0.1075,-0.08875 0,-0.4725 0.19625,-0.035 c 0.75625,0 1.86,0.0925 2.26,0.0925 0.83,0 1.64625,-0.0925 2.47625,-0.0925 l 0.0588,0.05375 -0.0588,0.5075 -0.85,0.07375 c -0.28875,0.015 -0.61,0.1275 -0.61,0.395 0,0.1475 0.0875,0.38125 0.16125,0.5425 l 2.08,5.43 1.17625,2.69 c 0.1225,0.27375 0.14125,0.3275 0.195,0.3275 0.04,0 0.0937,-0.07375 0.16625,-0.28875 l 2.58375,-6.855 c 0.2875,-0.77625 0.5075,-1.445 0.4875,-1.665 -0.015,-0.3075 -0.1075,-0.46875 -0.63,-0.5225 l -0.9425,-0.0925 -0.1075,-0.05375 0,-0.56125 c 0.70375,0 1.41125,0.11125 2.115,0.11125 0.56125,0 1.7525,-0.11125 1.88,-0.11125 l 0.14625,0.0725 0,0.415 -0.16625,0.1275 -0.55625,0.03875 c -0.36125,0.015 -0.5075,0.2 -0.7625,0.83 -1.71375,4.14125 -2.13375,5.445 -3.51,8.93625 l -0.91875,2.3475 c -0.0925,0.255 -0.12625,0.27375 -0.25375,0.27375 -0.16125,0 -0.2,-0.05375 -0.23375,-0.13125 l -4.84875,-11.68"
     inkscape:connector-curvature="0" /><path
     id="path96"
     style="fill:#000000;fill-opacity:1;fill-rule:nonzero;stroke:none"
     d="m 260.3225,19.276999 -2.0075,-5.17625 -0.0337,0 -1.71875,5.17625 3.76,0 z m -3.995,0.7025 -0.795,2.56875 c -0.1425,0.46875 -0.215,0.88375 -0.215,1.17125 0,0.59625 0.85,0.72875 1.3375,0.72875 0.16125,0 0.195,0.10625 0.195,0.34125 0,0.18 -0.0138,0.25375 -0.14125,0.25375 -0.415,0 -1.7375,-0.0925 -2.22625,-0.0925 -0.48875,0 -1.245,0.0925 -1.7875,0.0925 -0.36125,0 -0.36125,-0.05375 -0.36125,-0.2925 l 0,-0.19625 c 0,-0.0925 0.16125,-0.12625 0.59625,-0.165 0.9375,-0.08875 1.06375,-0.26875 1.41125,-1.265 l 3.57875,-10.415 c 0.36125,-0.3075 0.7425,-0.7225 1.19125,-0.86875 l 4.54125,11.445 c 0.3075,0.76125 0.63,1.1425 1.685,1.1425 0.195,0 0.22875,0.215 0.22875,0.415 0,0.2 -0.1225,0.2 -0.34125,0.2 -0.28875,0 -1.44625,-0.0925 -2.15375,-0.0925 -0.7225,0 -1.445,0.03875 -2.1675,0.0925 -0.26875,0 -0.28875,-0.05375 -0.28875,-0.3075 0,-0.2 0.1075,-0.2875 0.36125,-0.2875 0.26875,0 1.1575,-0.05875 1.1575,-0.49375 0,-0.14125 -0.0738,-0.43 -0.3275,-1.065 l -1.15625,-2.91 -4.3225,0"
     inkscape:connector-curvature="0" /><path
     id="path98"
     style="fill:#000000;fill-opacity:1;fill-rule:nonzero;stroke:none"
     d="m 266.9675,14.501999 c 0,-0.36625 -0.0187,-0.455 -0.0925,-0.60125 -0.16125,-0.3075 -0.9575,-0.9575 -1.265,-0.97625 l -0.96125,-0.05375 c -0.0688,0 -0.0888,-0.18125 -0.0888,-0.3225 0,-0.0925 0,-0.23875 0.0888,-0.23875 0.56125,0 0.99625,-0.035 1.45,-0.035 0.83,0 2.14875,0.07375 2.475,0.1075 l 5.47875,6.62125 c 0.83,1.01125 1.64625,1.95375 2.95,3.2525 l 0.0675,0 0,-7.955 c 0,-1.19125 -0.43,-1.37625 -1.01,-1.39125 l -0.77625,-0.03875 c -0.0738,0 -0.1075,-0.18125 -0.1075,-0.3025 0,-0.1125 0.0538,-0.29375 0.16125,-0.29375 0.395,0 1.3375,0.0925 2.22625,0.0925 0.81,0 1.68,-0.0925 2.1875,-0.0925 0.0875,0 0.1075,0.07375 0.1075,0.14625 l 0,0.3425 c 0,0.0875 -0.035,0.1075 -0.16125,0.1075 l -0.47375,0 c -1.245,0 -1.245,0.635 -1.245,2.1725 l 0,10.46875 -0.435,0 -9.765,-11.1575 0,8.30125 c 0,1.5525 0.215,1.73375 1.7725,1.7925 0.0725,0 0.12625,0.16 0.12625,0.3025 0,0.14625 -0.0188,0.2925 -0.0725,0.2925 -0.3475,0 -1.5,-0.0925 -2.26125,-0.0925 -0.88375,0 -1.28375,0.0925 -2.11375,0.0925 -0.1075,0 -0.1275,-0.12625 -0.1275,-0.36125 0,-0.16625 0.02,-0.23375 0.235,-0.23375 0.76125,0 1.63,-0.18125 1.63,-1.10375 l 0,-8.8425"
     inkscape:connector-curvature="0" /><path
     id="path100"
     style="fill:#000000;fill-opacity:1;fill-rule:nonzero;stroke:none"
     d="m 296.00125,17.371999 -2.67625,-6.89875 -0.0487,0 -2.295,6.89875 5.02,0 z m -5.3325,0.9425 -1.06375,3.4275 c -0.19125,0.625 -0.28875,1.1825 -0.28875,1.5675 0,0.79625 1.1325,0.9675 1.7875,0.9675 0.215,0 0.26875,0.14125 0.26875,0.45875 0,0.23875 -0.03,0.3375 -0.19625,0.3375 -0.55625,0 -2.31875,-0.1225 -2.96875,-0.1225 -0.64875,0 -1.665,0.1225 -2.3925,0.1225 -0.4775,0 -0.4775,-0.07375 -0.4775,-0.38625 l 0,-0.26875 c 0,-0.1175 0.21375,-0.16625 0.795,-0.215 1.255,-0.12125 1.42625,-0.36125 1.885,-1.68875 l 4.775,-13.90125 c 0.48375,-0.41125 0.98625,-0.9675 1.5925,-1.1575 l 6.05875,15.2775 c 0.41125,1.01125 0.845,1.51875 2.24125,1.51875 0.26875,0 0.3125,0.28875 0.3125,0.5575 0,0.26375 -0.165,0.26375 -0.45375,0.26375 -0.39,0 -1.93375,-0.1225 -2.87625,-0.1225 -0.96125,0 -1.92875,0.04875 -2.895,0.1225 -0.36125,0 -0.38625,-0.07375 -0.38625,-0.41125 0,-0.2675 0.1475,-0.385 0.48375,-0.385 0.36625,0 1.5475,-0.07375 1.5475,-0.655 0,-0.19 -0.0975,-0.57625 -0.43875,-1.42 l -1.54375,-3.8875 -5.76625,0"
     inkscape:connector-curvature="0" /><path
     id="path102"
     style="fill:#000000;fill-opacity:1;fill-rule:nonzero;stroke:none"
     d="m 314.33625,12.274499 c 0.55625,0 1.1375,0.05375 1.71375,0.05375 0.45375,0 0.9225,-0.05375 1.37625,-0.05375 0.26875,0 0.3225,0.07375 0.3225,0.1275 l 0,0.2875 c 0,0.1275 -0.0537,0.22 -0.12625,0.22 -0.1275,0 -0.3225,-0.03875 -0.5425,-0.03875 -1.05,0 -1.05,0.5275 -1.05,1.69875 0,1.035 0.2,7.79375 0.2,8.78875 0,0.50875 0.255,1.09 1.03125,1.09 0.7275,0 0.815,0.03375 0.815,0.195 0,0.22 -0.1075,0.4 -0.16125,0.4 -0.9575,0 -1.71875,-0.0925 -2.48,-0.0925 -0.7575,0 -1.53875,0.0925 -2.315,0.0925 -0.12625,0 -0.14125,-0.07375 -0.14125,-0.18 l 0,-0.18125 c 0,-0.18 0.16125,-0.23375 0.99125,-0.23375 0.36625,0 0.68875,-0.435 0.68875,-1.07 0,-1.9525 -0.0688,-6.1675 -0.1475,-9.2575 -0.0675,-0.02 -0.0488,-0.02 -0.0488,-0.02 -1.015,2.08 -2.33375,5.1025 -2.94875,6.70875 l -1.70375,4.46875 c -0.015,0.05375 -0.0688,0.1075 -0.16125,0.1075 -0.0888,0 -0.16125,-0.08875 -0.215,-0.3425 -0.1075,-0.45375 -0.27375,-0.88875 -0.45375,-1.32375 l -3.41875,-8.315 c -0.12625,-0.3075 -0.23375,-0.5275 -0.3025,-0.5275 -0.0775,0 -0.0775,0.36125 -0.0775,0.5625 0,1.43 -0.215,6.88875 -0.215,7.7775 0,0.77625 0,1.23125 1.59125,1.23125 0.1075,0 0.1275,0.0875 0.1275,0.3025 0,0.0725 -0.02,0.2925 -0.0937,0.2925 -0.25375,0 -1.1375,-0.0925 -2.11375,-0.0925 -1.03,0 -2.04125,0.0925 -2.295,0.0925 -0.0537,0 -0.1125,-0.05375 -0.1125,-0.14625 l 0,-0.26875 c 0,-0.16625 0.14625,-0.18 0.36625,-0.18 1.48,0 1.7,-0.455 1.7,-2.0275 0,-0.88875 0.3025,-7.54375 0.3025,-8.1925 0,-0.9575 -0.46875,-1.3575 -2.095,-1.3575 -0.0537,0 -0.0875,-0.08875 -0.0875,-0.2 l 0,-0.235 c 0,-0.0875 0.0537,-0.16125 0.14125,-0.16125 0.68875,0 1.3375,0.0925 2.06,0.0925 0.455,0 0.92375,-0.0925 1.3775,-0.0925 0.1275,0 0.25375,0.29375 0.34125,0.5275 l 3.90625,9.34625 0.0888,0 4.165,-9.87375"
     inkscape:connector-curvature="0" /><path
     id="path104"
     style="fill:#000000;fill-opacity:1;fill-rule:nonzero;stroke:none"
     d="m 321.41125,18.460749 c -1.30375,-0.78125 -1.82625,-1.50375 -1.82625,-2.91 0,-2.26 1.84125,-3.53 4.2825,-3.53 0.68875,0 1.665,0.235 2.28,0.5075 l 0.1275,2.26125 0,0.0875 c 0,0.0925 -0.18125,0.1275 -0.435,0.1275 -0.235,0 -0.26875,-0.1075 -0.28875,-0.28875 -0.12625,-1.21 -0.995,-1.98625 -2.28,-1.98625 -1.23,0 -2.1875,0.86375 -2.1875,2.02625 0,1.29875 0.79625,1.80625 2.6025,2.76375 1.7925,0.94125 3.35,1.7725 3.35,4.0325 0,2.46125 -2.22625,3.745 -4.4875,3.745 -0.7425,0 -1.9725,-0.23875 -2.65625,-0.5275 -0.14625,-0.0725 -0.2,-0.3075 -0.25375,-0.7025 l -0.22,-1.70375 c 0,-0.1075 0.36625,-0.1075 0.47375,-0.1075 0.0538,0 0.1075,0.03875 0.14125,0.165 0.42,1.3725 1.3575,2.16875 2.8075,2.16875 1.265,0 2.47625,-1.10375 2.47625,-2.33375 0,-1.1725 -0.66875,-1.88 -1.61125,-2.44125 l -2.295,-1.35375"
     inkscape:connector-curvature="0" /><path
     id="path106"
     style="fill:#000000;fill-opacity:1;fill-rule:nonzero;stroke:none"
     d="m 334.65375,23.104499 c 0,1.34375 0.9025,1.34375 2.02125,1.34375 l 0.1125,0.0875 0,0.2875 c 0,0.22 -0.0937,0.22 -0.38125,0.22 -0.36125,0 -1.245,-0.0925 -2.515,-0.0925 -0.99625,0 -2.54875,0.0925 -2.9825,0.0925 -0.04,-0.12625 -0.0738,-0.22 -0.0738,-0.3275 0,-0.05375 0.02,-0.16125 0.0738,-0.2 l 0.18,-0.0675 0.22,0 c 1.645,0 1.71375,-0.5625 1.71375,-2.06625 l 0,-8.56875 -0.0537,-0.835 -2.42125,0 c -1.3725,0 -1.5925,0.86875 -1.93375,2.02625 -0.035,0.1125 -0.1125,0.16625 -0.22,0.16625 -0.25375,0 -0.415,-0.07375 -0.415,-0.18125 0,-0.3075 0.22,-1.9925 0.22,-3.4175 0,-0.07375 0.25375,-0.07375 0.5025,-0.07375 0.58125,0.77625 0.76125,0.77625 1.5375,0.77625 l 6.72375,0 c 1.27,0 1.63125,-0.38 2.085,-0.9375 0.1275,0 0.5425,0 0.5425,0.16125 0,0.14625 -0.36125,1.62625 -0.4,2.93 0,0.195 -0.0537,0.57625 -0.1425,0.57625 -0.16625,0 -0.58125,-0.0875 -0.58125,-0.18125 l -0.0675,-0.9025 c -0.0788,-0.92375 -0.50875,-0.9425 -1.25,-0.9425 l -2.495,0 0,10.12625"
     inkscape:connector-curvature="0" /><path
     id="path108"
     style="fill:#000000;fill-opacity:1;fill-rule:nonzero;stroke:none"
     d="m 342.54375,14.120749 c 0,-1.1775 -0.88875,-1.30375 -1.93375,-1.30375 -0.0725,0 -0.0725,-0.0875 -0.0725,-0.16125 l 0,-0.2 c 0,-0.16125 0.3075,-0.18125 0.9375,-0.18125 0.7225,0 1.5375,0.0925 2.3,0.0925 0.7225,0 1.445,-0.0925 2.1675,-0.0925 l 3.81875,0 c 0.14125,0 0.16125,0.16125 0.16125,0.36125 l 0,2.2075 c 0,0.07375 -0.04,0.14625 -0.1275,0.14625 -0.14625,0 -0.435,0.015 -0.45375,-0.2 l -0.0537,-0.56125 c -0.1075,-1.1575 -0.90375,-1.3575 -1.915,-1.3575 l -1.865,0 c -1.01,0 -1.3375,0.22 -1.3375,1.59125 l 0,3.27125 c 0,0.05875 0.1075,0.1475 0.14625,0.1475 l 2.13375,-0.07375 c 1.08375,-0.03375 1.39125,-0.37625 1.66,-1.3375 0.04,-0.1075 0.0925,-0.1425 0.29375,-0.1425 0.12625,0 0.215,0.015 0.215,0.1075 0,0.38125 -0.1075,1.21125 -0.1075,1.8075 0,0.97625 0.1075,1.50375 0.1075,1.81125 0,0.1075 -0.18125,0.215 -0.28875,0.215 -0.14625,0 -0.27375,-0.05375 -0.3075,-0.235 -0.0925,-0.4875 -0.0925,-0.83 -0.18125,-1.08375 -0.0925,-0.27375 -0.3075,-0.4 -0.84875,-0.42 l -2.56875,-0.05375 c -0.25375,0 -0.25375,0.0925 -0.25375,0.22 l 0,4.30125 c 0,1.30375 0.9575,1.33875 2.2075,1.33875 l 0.97625,0 c 0.95625,0 1.62625,-0.02 2.08,-0.28875 0.395,-0.23375 0.95625,-1.3375 1.1575,-1.79125 0.23375,0 0.54125,0.05375 0.54125,0.18 0,0.05875 -0.0537,0.2 -0.0925,0.29375 l -0.5025,1.825 c -0.1475,0.48875 -0.235,0.48875 -0.47375,0.48875 -1.95375,0 -3.8675,-0.0925 -6.49,-0.0925 -0.595,0 -2.11375,0.0925 -3.03625,0.0925 -0.0588,0 -0.1075,-0.18 -0.1075,-0.2925 0,-0.1425 0.0337,-0.3025 0.1075,-0.3025 1.5725,-0.07375 2.00625,-0.24 2.00625,-1.9 l 0,-8.4275"
     inkscape:connector-curvature="0" /><path
     id="path110"
     style="fill:#000000;fill-opacity:1;fill-rule:nonzero;stroke:none"
     d="m 356.09375,18.080749 c 0.23375,0.01875 0.45375,0.03375 0.68875,0.03375 1.445,0 3.25125,-0.5025 3.25125,-2.63625 0,-1.5925 -1.08375,-2.6275 -2.675,-2.6275 -1.23125,0 -1.265,0.29375 -1.265,0.835 l 0,4.395 z m -1.62625,-3.8525 c 0,-0.90375 -0.0387,-1.3575 -1.17625,-1.3575 l -0.7425,0 c -0.1075,0 -0.12625,-0.2 -0.12625,-0.3425 0,-0.0925 0.0525,-0.25375 0.12625,-0.25375 1.05,0 2.11875,0.05375 3.16375,0.05375 0.835,0 1.64625,-0.05375 2.47625,-0.05375 1.845,0 3.6575,1.23125 3.6575,3.13 0,1.64625 -1.505,2.74875 -2.915,2.96375 l 0,0.03875 c 0.7075,0.16125 1.45,1.48 1.63,1.76875 l 1.9875,3.04125 c 0.63,0.9575 1.05,1.1375 2.13375,1.19125 l 0.1075,0.1075 0,0.3475 c 0,0.16 -0.1275,0.18 -0.195,0.18 -0.38125,0 -0.9425,-0.05375 -1.21625,-0.05375 -0.435,0 -0.86375,0.05375 -1.29875,0.05375 -0.415,0 -1.23,-1.21625 -2.3,-3.11 -1.17125,-2.08 -1.86,-3.2225 -3.05625,-3.2225 -0.14125,0 -0.36125,0 -0.63,0.03875 l 0,4.42875 c 0,0.64875 0,1.27 0.90375,1.27 0.6875,0 0.99625,0 0.99625,0.14125 0,0.34125 -0.0537,0.45375 -0.3275,0.45375 -0.9425,0 -1.71875,-0.0925 -2.495,-0.0925 -0.3075,0 -2.315,0.0925 -2.56875,0.0925 -0.1075,0 -0.14625,-0.23375 -0.14625,-0.38125 0,-0.16 0.0725,-0.2 0.43375,-0.21375 1.25,-0.05875 1.5775,-0.24 1.5775,-1.485 l 0,-8.735"
     inkscape:connector-curvature="0" /><path
     id="path112"
     style="fill:#000000;fill-opacity:1;fill-rule:nonzero;stroke:none"
     d="m 369.12125,22.455749 c 0,1.9925 2.04125,1.9925 2.83625,1.9925 2.47625,0 5.1175,-2.04625 5.1175,-5.82625 0,-3.2175 -1.73375,-4.80875 -2.98375,-5.53125 -0.86875,-0.38125 -2.00625,-0.47375 -2.7875,-0.47375 -1.48,0 -2.1825,0.1125 -2.1825,1.26875 l 0,8.57 z M 367.49,14.389499 c 0,-0.68375 -0.14125,-1.3925 -0.815,-1.3925 -0.215,0 -0.79125,0.07375 -1.1375,0.07375 -0.0738,0 -0.0738,-0.26875 -0.0738,-0.36125 0,-0.1075 0,-0.16125 0.3125,-0.235 1.21125,-0.25375 4.10125,-0.45375 5.655,-0.45375 0.995,0 1.9375,0.0925 2.82125,0.3275 2.46125,0.66875 4.75625,2.85625 4.75625,6.18125 0,4.4875 -3.745,6.51375 -7.1775,6.51375 -1.71875,0 -2.6225,-0.07375 -3.525,-0.07375 -0.90375,0 -1.8075,0.05375 -2.715,0.07375 -0.0688,0 -0.0888,-0.16625 -0.0888,-0.2925 0,-0.1225 0.0888,-0.3025 0.16125,-0.3025 0.58125,-0.07375 1.05,-0.1125 1.3775,-0.3275 0.26875,-0.18125 0.44875,-0.47375 0.44875,-1.05 l 0,-8.68125"
     inkscape:connector-curvature="0" /><path
     id="path114"
     style="fill:#000000;fill-opacity:1;fill-rule:nonzero;stroke:none"
     d="m 385.7025,19.276999 -2.00625,-5.17625 -0.0387,0 -1.71375,5.17625 3.75875,0 z m -3.99875,0.7025 -0.79125,2.56875 c -0.14625,0.46875 -0.21875,0.88375 -0.21875,1.17125 0,0.59625 0.84875,0.72875 1.3375,0.72875 0.16125,0 0.2,0.10625 0.2,0.34125 0,0.18 -0.0188,0.25375 -0.14625,0.25375 -0.415,0 -1.73375,-0.0925 -2.22125,-0.0925 -0.48875,0 -1.25,0.0925 -1.7925,0.0925 -0.36125,0 -0.36125,-0.05375 -0.36125,-0.2925 l 0,-0.19625 c 0,-0.0925 0.16625,-0.12625 0.59625,-0.165 0.94125,-0.08875 1.06875,-0.26875 1.41,-1.265 l 3.58,-10.415 c 0.36125,-0.3075 0.74125,-0.7225 1.19625,-0.86875 l 4.53625,11.445 c 0.3125,0.76125 0.63375,1.1425 1.68375,1.1425 0.2,0 0.235,0.215 0.235,0.415 0,0.2 -0.1275,0.2 -0.3425,0.2 -0.2875,0 -1.45,-0.0925 -2.1525,-0.0925 -0.7225,0 -1.44625,0.03875 -2.17375,0.0925 -0.2675,0 -0.2875,-0.05375 -0.2875,-0.3075 0,-0.2 0.1125,-0.2875 0.36125,-0.2875 0.27375,0 1.1575,-0.05875 1.1575,-0.49375 0,-0.14125 -0.0687,-0.43 -0.3225,-1.065 l -1.1575,-2.91 -4.32625,0"
     inkscape:connector-curvature="0" /><path
     id="path116"
     style="fill:#000000;fill-opacity:1;fill-rule:nonzero;stroke:none"
     d="m 403.17375,12.274499 c 0.56125,0 1.1425,0.05375 1.71875,0.05375 0.45375,0 0.9225,-0.05375 1.3775,-0.05375 0.2675,0 0.32125,0.07375 0.32125,0.1275 l 0,0.2875 c 0,0.1275 -0.0537,0.22 -0.12125,0.22 -0.1275,0 -0.3275,-0.03875 -0.5475,-0.03875 -1.045,0 -1.045,0.5275 -1.045,1.69875 0,1.035 0.19625,7.79375 0.19625,8.78875 0,0.50875 0.25375,1.09 1.035,1.09 0.7175,0 0.81,0.03375 0.81,0.195 0,0.22 -0.1075,0.4 -0.16125,0.4 -0.96125,0 -1.71875,-0.0925 -2.48,-0.0925 -0.7575,0 -1.53375,0.0925 -2.315,0.0925 -0.12625,0 -0.14625,-0.07375 -0.14625,-0.18 l 0,-0.18125 c 0,-0.18 0.16625,-0.23375 0.99625,-0.23375 0.36125,0 0.68875,-0.435 0.68875,-1.07 0,-1.9525 -0.0738,-6.1675 -0.14125,-9.2575 -0.0738,-0.02 -0.0588,-0.02 -0.0588,-0.02 -1.01125,2.08 -2.335,5.1025 -2.945,6.70875 l -1.69875,4.46875 c -0.02,0.05375 -0.0788,0.1075 -0.16625,0.1075 -0.0875,0 -0.16125,-0.08875 -0.215,-0.3425 -0.1075,-0.45375 -0.27375,-0.88875 -0.45375,-1.32375 l -3.41875,-8.315 c -0.12625,-0.3075 -0.23375,-0.5275 -0.3075,-0.5275 -0.0675,0 -0.0675,0.36125 -0.0675,0.5625 0,1.43 -0.22,6.88875 -0.22,7.7775 0,0.77625 0,1.23125 1.59125,1.23125 0.1075,0 0.1275,0.0875 0.1275,0.3025 0,0.0725 -0.02,0.2925 -0.0925,0.2925 -0.25,0 -1.1375,-0.0925 -2.115,-0.0925 -1.03,0 -2.045,0.0925 -2.295,0.0925 -0.0537,0 -0.1075,-0.05375 -0.1075,-0.14625 l 0,-0.26875 c 0,-0.16625 0.1425,-0.18 0.3575,-0.18 1.48375,0 1.70375,-0.455 1.70375,-2.0275 0,-0.88875 0.3075,-7.54375 0.3075,-8.1925 0,-0.9575 -0.46875,-1.3575 -2.1,-1.3575 -0.0537,0 -0.0925,-0.08875 -0.0925,-0.2 l 0,-0.235 c 0,-0.0875 0.0587,-0.16125 0.14625,-0.16125 0.68875,0 1.3375,0.0925 2.06625,0.0925 0.44875,0 0.9175,-0.0925 1.37125,-0.0925 0.1275,0 0.25375,0.29375 0.3425,0.5275 l 3.90625,9.34625 0.0925,0 4.155,-9.87375"
     inkscape:connector-curvature="0" /><path
     id="path124"
     style="fill:#000000;fill-opacity:1;fill-rule:nonzero;stroke:none"
     d="m 21.17625,13.651999 c -0.195,-0.4875 -0.9175,-0.615 -1.42,-0.615 l -0.1075,-0.0875 0,-0.47375 0.19,-0.03375 c 0.7575,0 1.86,0.0925 2.26125,0.0925 0.835,0 1.645,-0.0925 2.475,-0.0925 l 0.05875,0.0525 -0.05875,0.50875 -0.85,0.0725 c -0.2875,0.015 -0.61,0.1275 -0.61,0.39625 0,0.14625 0.0875,0.38 0.16125,0.54125 l 2.08,5.43 1.1775,2.69 c 0.12125,0.27375 0.14625,0.3275 0.2,0.3275 0.03375,0 0.0875,-0.0725 0.16125,-0.2875 l 2.5825,-6.85625 c 0.2875,-0.77625 0.5075,-1.445 0.48875,-1.665 -0.015,-0.3075 -0.1075,-0.46875 -0.63,-0.5225 l -0.9375,-0.0925 -0.1125,-0.05375 0,-0.56125 c 0.7025,0 1.41625,0.1125 2.11375,0.1125 0.5625,0 1.75375,-0.1125 1.88,-0.1125 l 0.14625,0.0725 0,0.41625 -0.165,0.12625 -0.5575,0.03875 c -0.36125,0.015 -0.5075,0.2 -0.76125,0.83 -1.70875,4.14125 -2.13375,5.445 -3.51125,8.93625 l -0.9175,2.34875 c -0.0925,0.25375 -0.1275,0.2725 -0.24875,0.2725 -0.16625,0 -0.205,-0.0525 -0.24,-0.13125 l -4.84875,-11.68"
     inkscape:connector-curvature="0" /><path
     id="path126"
     style="fill:#000000;fill-opacity:1;fill-rule:nonzero;stroke:none"
     d="m 39.82375,17.841999 -2.675,-6.9 -0.04875,0 -2.295,6.9 5.01875,0 z m -5.33125,0.9425 -1.065,3.4275 c -0.19,0.625 -0.2875,1.18125 -0.2875,1.5675 0,0.79625 1.1325,0.96625 1.78625,0.96625 0.215,0 0.26875,0.1425 0.26875,0.455 0,0.24375 -0.02875,0.34125 -0.195,0.34125 -0.55625,0 -2.31875,-0.1225 -2.96875,-0.1225 -0.65,0 -1.665,0.1225 -2.3925,0.1225 -0.47875,0 -0.47875,-0.07875 -0.47875,-0.39125 l 0,-0.2625 c 0,-0.1175 0.215,-0.16625 0.79625,-0.215 1.255,-0.1225 1.425,-0.36125 1.885,-1.69 l 4.775,-13.90125 c 0.48375,-0.41 0.98625,-0.96625 1.59125,-1.1575 l 6.06,15.27875 c 0.41,1.01 0.845,1.51875 2.24125,1.51875 0.26875,0 0.3125,0.2875 0.3125,0.55625 0,0.26375 -0.16625,0.26375 -0.45375,0.26375 -0.39125,0 -1.93375,-0.1225 -2.87625,-0.1225 -0.9625,0 -1.92875,0.04375 -2.895,0.1225 -0.36125,0 -0.38625,-0.07875 -0.38625,-0.41 0,-0.26875 0.14625,-0.38625 0.48375,-0.38625 0.36625,0 1.5475,-0.0725 1.5475,-0.65375 0,-0.19125 -0.0975,-0.57625 -0.44,-1.42125 l -1.5425,-3.88625 -5.76625,0"
     inkscape:connector-curvature="0" /><path
     id="path128"
     style="fill:#000000;fill-opacity:1;fill-rule:nonzero;stroke:none"
     d="m 4.63875,10.859499 c 0,-1.905 -1.1575,-1.905 -2.485,-1.905 l -0.1225,-0.0975 0,-0.41 c 0,-0.26875 0.17125,-0.2925 0.435,-0.2925 0.625,0 2.1725,0.12125 3.305,0.12125 1.20625,0 2.43625,-0.12125 3.6425,-0.12125 l 0.07375,0.0725 0,0.63 -0.1175,0.0975 -0.2875,0 c -1.5725,0 -2.27125,0.16625 -2.27125,1.9775 l 0,6.9975 c 0,3.47625 0.67375,6.20125 4.825,6.20125 4.32125,0 5.7225,-2.075 5.7225,-6.1525 l 0,-6.27375 c 0,-2.75 0,-2.55875 -2.12375,-2.75 l -0.09875,-0.195 0,-0.45875 0.07375,-0.14625 c 0.435,0 0.9125,0.12125 2.725,0.12125 1.015,0 2.295,-0.12125 3.06625,-0.12125 l 0.0975,0.14625 0,0.5075 -0.14625,0.14625 c -1.7625,0 -2.3875,0.09375 -2.3875,1.3 l 0,8.6175 c 0,4.41375 -2.58375,6.66 -6.97375,6.66 -3.5,0 -6.9525,-1.23 -6.9525,-5.25875 l 0,-9.41375"
     inkscape:connector-curvature="0" /></svg>